<?xml version="1.0" encoding="utf-8"?>
<!-- Generator: Adobe Illustrator 16.0.0, SVG Export Plug-In . SVG Version: 6.00 Build 0)  -->
<!DOCTYPE svg PUBLIC "-//W3C//DTD SVG 1.1//EN" "http://www.w3.org/Graphics/SVG/1.1/DTD/svg11.dtd">
<svg version="1.1" id="Layer_1" xmlns="http://www.w3.org/2000/svg" xmlns:xlink="http://www.w3.org/1999/xlink" x="0px" y="0px"
	 width="367px" height="271px" viewBox="0 0 367 271" enable-background="new 0 0 367 271" xml:space="preserve">
<path fill="#F8F0E4" d="M5603.4,135.5c0,74.1-63.5,134.2-141.8,134.2c-78.3,0-141.8-60.1-141.8-134.2c0-74.1,63.5-134.2,141.8-134.2
	C5540,1.3,5603.4,61.4,5603.4,135.5"/>
<path fill="#F8F0E4" d="M5173.7,135.5c0,74.1-63.5,134.2-141.8,134.2c-78.3,0-141.8-60.1-141.8-134.2c0-74.1,63.5-134.2,141.8-134.2
	C5110.3,1.3,5173.7,61.4,5173.7,135.5"/>
<path fill="#F8F0E4" d="M4768.7,135.5c0,74.1-63.5,134.2-141.8,134.2c-78.3,0-141.8-60.1-141.8-134.2c0-74.1,63.5-134.2,141.8-134.2
	C4705.2,1.3,4768.7,61.4,4768.7,135.5"/>
<path fill="#F8F0E4" d="M4375.7,135.5c0,74.1-63.5,134.2-141.8,134.2c-78.3,0-141.8-60.1-141.8-134.2c0-74.1,63.5-134.2,141.8-134.2
	C4312.2,1.3,4375.7,61.4,4375.7,135.5"/>
<path fill="#F8F0E4" d="M3976.6,135.5c0,74.1-63.5,134.2-141.8,134.2c-78.3,0-141.8-60.1-141.8-134.2c0-74.1,63.5-134.2,141.8-134.2
	C3913.2,1.3,3976.6,61.4,3976.6,135.5"/>
<path fill="#F8F0E4" d="M3577.6,135.5c0,74.1-63.5,134.2-141.8,134.2c-78.3,0-141.8-60.1-141.8-134.2c0-74.1,63.5-134.2,141.8-134.2
	C3514.1,1.3,3577.6,61.4,3577.6,135.5"/>
<path fill="#F8F0E4" d="M3169.5,135.5c0,74.1-63.5,134.2-141.8,134.2c-78.3,0-141.8-60.1-141.8-134.2c0-74.1,63.5-134.2,141.8-134.2
	C3106.1,1.3,3169.5,61.4,3169.5,135.5"/>
<path fill="#F8F0E4" d="M2755.5,135.5c0,74.1-63.5,134.2-141.8,134.2c-78.3,0-141.8-60.1-141.8-134.2c0-74.1,63.5-134.2,141.8-134.2
	C2692,1.3,2755.5,61.4,2755.5,135.5"/>
<path fill="#F8F0E4" d="M2347.5,135.5c0,74.1-63.5,134.2-141.8,134.2c-78.3,0-141.8-60.1-141.8-134.2c0-74.1,63.5-134.2,141.8-134.2
	C2284,1.3,2347.5,61.4,2347.5,135.5"/>
<path fill="#F8F0E4" d="M1945.4,135.5c0,74.1-63.5,134.2-141.8,134.2c-78.3,0-141.8-60.1-141.8-134.2c0-74.1,63.5-134.2,141.8-134.2
	C1882,1.3,1945.4,61.4,1945.4,135.5"/>
<path fill="#F8F0E4" d="M1540.4,135.5c0,74.1-63.5,134.2-141.8,134.2c-78.3,0-141.7-60.1-141.7-134.2c0-74.1,63.5-134.2,141.7-134.2
	C1476.9,1.3,1540.4,61.4,1540.4,135.5"/>
<path fill="#F8F0E4" d="M1135.3,135.5c0,74.1-63.5,134.2-141.8,134.2c-78.3,0-141.7-60.1-141.7-134.2c0-74.1,63.5-134.2,141.7-134.2
	C1071.9,1.3,1135.3,61.4,1135.3,135.5"/>
<path fill="#F8F0E4" d="M733.3,135.5c0,74.1-63.5,134.2-141.8,134.2c-78.3,0-141.7-60.1-141.7-134.2c0-74.1,63.5-134.2,141.7-134.2
	C669.8,1.3,733.3,61.4,733.3,135.5"/>
<path fill="#F8F0E4" d="M325.3,135.5c0,74.1-63.5,134.2-141.8,134.2c-78.3,0-141.7-60.1-141.7-134.2c0-74.1,63.5-134.2,141.7-134.2
	C261.8,1.3,325.3,61.4,325.3,135.5"/>
<path fill="#F8F0E4" d="M-91.8,135.5c0,74.1-63.5,134.2-141.8,134.2c-78.3,0-141.7-60.1-141.7-134.2c0-74.1,63.5-134.2,141.7-134.2
	C-155.3,1.3-91.8,61.4-91.8,135.5"/>
<path fill="#F8F0E4" d="M-490.8,135.5c0,74.1-63.5,134.2-141.8,134.2c-78.3,0-141.7-60.1-141.7-134.2c0-74.1,63.5-134.2,141.7-134.2
	C-554.3,1.3-490.8,61.4-490.8,135.5"/>
<path fill="#F8F0E4" d="M-895.9,135.5c0,74.1-63.5,134.2-141.8,134.2c-78.3,0-141.7-60.1-141.7-134.2c0-74.1,63.5-134.2,141.7-134.2
	C-959.3,1.3-895.9,61.4-895.9,135.5"/>
<path fill="#F8F0E4" d="M-1300.9,135.5c0,74.1-63.5,134.2-141.8,134.2c-78.3,0-141.7-60.1-141.7-134.2
	c0-74.1,63.5-134.2,141.7-134.2C-1364.4,1.3-1300.9,61.4-1300.9,135.5"/>
<path fill="#F8F0E4" d="M-1699.7,135.5c0,74.1-63.5,134.2-141.8,134.2c-78.3,0-141.7-60.1-141.7-134.2
	c0-74.1,63.5-134.2,141.7-134.2C-1763.2,1.3-1699.7,61.4-1699.7,135.5"/>
<rect x="-2025" y="-333.3" fill="#006FA6" width="367" height="271"/>
<rect x="-1626.2" y="-333.3" fill="#036592" width="367" height="271"/>
<rect x="-1221.1" y="-333.3" fill="#005B81" width="367" height="271"/>
<g>
	<path fill="#F7FFFA" d="M-1978.1-165.1h-9v-26.3l-7.4,4.5l-4-6.1l12.2-7.3h8.2V-165.1z"/>
	<path fill="#F7FFFA" d="M-1922.7-165.1h-9.5l-0.5-13.5c-0.2-4.8-0.3-9.8,0.2-14.8l-4.9,24.5h-9.1l-5.2-24.5
		c0.5,5.7,0.6,9.8,0.4,14.8l-0.4,13.5h-9.5l2.6-36.1h11.9l4.8,24l4.4-24h12L-1922.7-165.1z"/>
	<path fill="#F7FFFA" d="M-1896.5-194.4h-12.3v7.7h10.8v6.6h-10.8v8.2h13.1v6.8h-22.8v-36.1h22.9L-1896.5-194.4z M-1907-208.6
		l-7,4.4l-3.2-3.7l7.4-7h5.6l7.4,7l-3.2,3.7L-1907-208.6z"/>
	<path fill="#F7FFFA" d="M-1865.9-197.3l-4.3,5.1c-2.5-2-5-3-7.8-3c-2.8,0-4.4,1.1-4.4,3.1c0,2.1,1.4,2.8,6.8,4.6
		c7.1,2.2,10.7,5.3,10.7,11.8c0,6.8-5.5,11.6-14.8,11.6c-6.6,0-11.1-2.4-14.1-5.2l4.8-5.3c2.6,2.2,5.5,3.6,8.9,3.6
		c3.3,0,5.1-1.6,5.1-3.9c0-2.4-1.2-3.4-6.2-4.9c-8.4-2.6-11.1-6.1-11.1-11.4c0-6.6,5.8-10.8,13.5-10.8
		C-1873.2-202.1-1869.2-200.4-1865.9-197.3z"/>
	<path fill="#FDA35C" d="M-1820.6-197.5l-4.9,5.1c-2.2-1.9-4.2-2.9-7-2.9c-5,0-8.3,3.7-8.3,12.2c0,9.1,2.2,12.1,6.8,12.1
		c1.6,0,3-0.3,4.3-1v-7.4h-4.1l-0.9-6.6h14.3v18c-3.8,2.5-8.8,3.9-13.4,3.9c-11.5,0-16.9-6.7-16.9-19c0-12.2,7.7-19,17.7-19
		C-1827.7-202.1-1823.5-200.2-1820.6-197.5z"/>
	<path fill="#FDA35C" d="M-1803.3-178.4h-2.6v13.3h-9.6v-36.1h12.5c10.1,0,15.2,3.5,15.2,11.2c0,4.7-2.1,7.4-6.7,9.8l9,15.1h-10.7
		L-1803.3-178.4z M-1806-184.9h3.2c3.3,0,5-1.6,5-5c0-3.1-1.9-4.5-5.5-4.5h-2.7V-184.9z"/>
	<path fill="#FDA35C" d="M-1766-172.4h-9.6l-1.6,7.4h-10l10.7-36.1h11.5l10.7,36.1h-10.2L-1766-172.4z M-1776-204l-2.3-4.7l11.7-6.8
		l3.5,6.8L-1776-204z M-1767.5-179.3l-3.3-15l-3.3,15H-1767.5z"/>
	<path fill="#FDA35C" d="M-1730.3-193.8h-8.5v28.8h-9.6v-28.8h-9v-7.3h28.2L-1730.3-193.8z"/>
	<path fill="#FDA35C" d="M-1717-165.1h-9.6v-36.1h9.6V-165.1z"/>
	<path fill="#FDA35C" d="M-1686-197.3l-4.3,5.1c-2.5-2-5-3-7.8-3c-2.8,0-4.4,1.1-4.4,3.1c0,2.1,1.4,2.8,6.8,4.6
		c7.1,2.2,10.7,5.3,10.7,11.8c0,6.8-5.5,11.6-14.8,11.6c-6.6,0-11.1-2.4-14.1-5.2l4.8-5.3c2.6,2.2,5.5,3.6,8.9,3.6
		c3.3,0,5.1-1.6,5.1-3.9c0-2.4-1.2-3.4-6.2-4.9c-8.4-2.6-11.1-6.1-11.1-11.4c0-6.6,5.8-10.8,13.5-10.8
		C-1693.3-202.1-1689.2-200.4-1686-197.3z"/>
</g>
<g>
	<path fill="#F7FFFA" d="M-1528.6-215.9c0,8.4-5.9,12.5-14.4,12.5h-3.7v11.6h-9.6v-36.1h12.4
		C-1534.5-227.8-1528.6-223.9-1528.6-215.9z M-1538.5-215.8c0-3.4-1.8-5.2-5.7-5.2h-2.6v10.9h2.8
		C-1540.4-210.2-1538.5-211.8-1538.5-215.8z"/>
	<path fill="#F7FFFA" d="M-1503-221h-12.3v7.7h10.8v6.6h-10.8v8.2h13.1v6.8h-22.8v-36.1h22.9L-1503-221z"/>
	<path fill="#F7FFFA" d="M-1485.5-205h-2.6v13.3h-9.6v-36.1h12.5c10.1,0,15.2,3.5,15.2,11.2c0,4.7-2.1,7.4-6.7,9.8l9,15.1h-10.7
		L-1485.5-205z M-1488.1-211.6h3.2c3.3,0,5-1.6,5-5c0-3.1-1.9-4.5-5.5-4.5h-2.7V-211.6z"/>
	<path fill="#F7FFFA" d="M-1440.2-224l-4.3,5.1c-2.5-2-5-3-7.8-3c-2.8,0-4.4,1.1-4.4,3.1c0,2.1,1.4,2.8,6.8,4.6
		c7.1,2.2,10.7,5.3,10.7,11.8c0,6.8-5.5,11.6-14.8,11.6c-6.6,0-11.1-2.4-14.1-5.2l4.8-5.3c2.6,2.2,5.5,3.6,8.9,3.6
		c3.3,0,5.1-1.6,5.1-3.9c0-2.4-1.2-3.4-6.2-4.9c-8.4-2.6-11.1-6.1-11.1-11.4c0-6.6,5.8-10.8,13.5-10.8
		C-1447.4-228.8-1443.4-227-1440.2-224z"/>
	<path fill="#F7FFFA" d="M-1403.7-209.8c0,11.7-6.1,19-16.6,19s-16.5-7-16.5-19c0-11.7,6-19,16.5-19S-1403.7-221.8-1403.7-209.8z
		 M-1426.8-209.8c0,8.7,2.2,12.1,6.5,12.1c4.5,0,6.5-3.4,6.5-12.1c0-8.7-2.1-12.1-6.5-12.1C-1424.7-221.9-1426.8-218.5-1426.8-209.8
		z"/>
	<path fill="#F7FFFA" d="M-1371-191.7h-12.1l-9.1-27.2c0.5,3.4,1.2,8.3,1.2,15v12.2h-8.5v-36.1h11.8l9.5,27.3
		c-0.6-3.6-1.3-8.1-1.3-14.2v-13.1h8.5V-191.7z"/>
	<path fill="#F7FFFA" d="M-1348-199.1h-9.6l-1.6,7.4h-10l10.7-36.1h11.5l10.7,36.1h-10.2L-1348-199.1z M-1349.5-206l-3.3-15l-3.3,15
		H-1349.5z"/>
	<path fill="#F7FFFA" d="M-1324.8-199.2h13.9l-1,7.5h-22.4v-36.1h9.6V-199.2z"/>
</g>
<g>
	<path fill="#F7FFFA" d="M-1138.9-221.3h-12.3v7.7h10.8v6.6h-10.8v8.2h13.1v6.8h-22.8v-36.1h22.9L-1138.9-221.3z"/>
	<path fill="#F7FFFA" d="M-1105.2-192h-10.4l-5.6-13l-5.4,13h-10.2l9.9-19.2l-9.1-16.9h10.3l4.6,11l5-11h10.1l-9.4,16.7L-1105.2-192
		z"/>
	<path fill="#F7FFFA" d="M-1078.7-225l-4.7,5.5c-1.8-1.6-3.7-2.5-6.2-2.5c-4.3,0-7.2,3.6-7.2,11.9c0,8.2,2.9,11.8,7.4,11.8
		c2.7,0,4.7-1.4,6.9-3l4.3,5.5c-2.5,2.5-6.6,4.8-11.6,4.8c-10.2,0-16.9-6.7-16.9-19.1c0-12.1,7-18.9,16.6-18.9
		C-1085.2-229.1-1081.7-227.5-1078.7-225z"/>
	<path fill="#F7FFFA" d="M-1065.7-199.5h13.9l-1,7.5h-22.4v-36.1h9.6V-199.5z"/>
	<path fill="#F7FFFA" d="M-1019.9-204.1c0,7.3-4.8,13-14.5,13c-9.8,0-14.5-5.3-14.5-13v-24h9.6v23.7c0,4.3,1.4,6.3,4.9,6.3
		c3.5,0,4.9-2.1,4.9-6.3v-23.7h9.7V-204.1z"/>
	<path fill="#F7FFFA" d="M-989.5-224.3l-4.3,5.1c-2.5-2-5-3-7.8-3c-2.8,0-4.4,1.1-4.4,3.1c0,2.1,1.4,2.8,6.8,4.6
		c7.1,2.2,10.7,5.3,10.7,11.8c0,6.8-5.5,11.6-14.8,11.6c-6.6,0-11.1-2.4-14.1-5.2l4.8-5.3c2.6,2.2,5.5,3.6,8.9,3.6
		c3.3,0,5.1-1.6,5.1-3.9c0-2.4-1.2-3.4-6.2-4.9c-8.4-2.6-11.1-6.1-11.1-11.4c0-6.6,5.8-10.8,13.5-10.8
		C-996.7-229.1-992.7-227.3-989.5-224.3z"/>
	<path fill="#F7FFFA" d="M-975.1-192h-9.6v-36.1h9.6V-192z"/>
	<path fill="#F7FFFA" d="M-951-192h-12.3l-10-36.1h10.1l6.2,29.1l5.7-29.1h9.8L-951-192z"/>
	<path fill="#F7FFFA" d="M-917.7-221.3H-930v7.7h10.8v6.6H-930v8.2h13.1v6.8h-22.8v-36.1h22.9L-917.7-221.3z"/>
</g>
<g>
	<polygon fill="#FE9F53" points="-1121.4,-174 -1115.5,-162.2 -1102.5,-160.3 -1111.9,-151.1 -1109.7,-138.1 -1121.4,-144.2 
		-1133,-138.1 -1130.8,-151.1 -1140.3,-160.3 -1127.2,-162.2 	"/>
	<polygon fill="#FE9F53" points="-1080.6,-174 -1074.7,-162.2 -1061.7,-160.3 -1071.1,-151.1 -1068.9,-138.1 -1080.6,-144.2 
		-1092.3,-138.1 -1090,-151.1 -1099.5,-160.3 -1086.4,-162.2 	"/>
	<polygon fill="#FE9F53" points="-1037.5,-174 -1031.7,-162.2 -1018.6,-160.3 -1028.1,-151.1 -1025.8,-138.1 -1037.5,-144.2 
		-1049.2,-138.1 -1047,-151.1 -1056.4,-160.3 -1043.4,-162.2 	"/>
	<polygon fill="#FE9F53" points="-994.4,-174 -988.6,-162.2 -975.5,-160.3 -985,-151.1 -982.8,-138.1 -994.4,-144.2 -1006.1,-138.1 
		-1003.9,-151.1 -1013.3,-160.3 -1000.3,-162.2 	"/>
	<polygon fill="#FE9F53" points="-952.7,-174 -946.9,-162.2 -933.8,-160.3 -943.3,-151.1 -941.1,-138.1 -952.7,-144.2 
		-964.4,-138.1 -962.2,-151.1 -971.6,-160.3 -958.6,-162.2 	"/>
</g>
<g>
	<polygon fill="#FE9F53" points="-1527,-174 -1521.1,-162.2 -1508.1,-160.3 -1517.5,-151.1 -1515.3,-138.1 -1527,-144.2 
		-1538.6,-138.1 -1536.4,-151.1 -1545.9,-160.3 -1532.8,-162.2 	"/>
	<polygon fill="#FE9F53" points="-1486.2,-174 -1480.3,-162.2 -1467.3,-160.3 -1476.7,-151.1 -1474.5,-138.1 -1486.2,-144.2 
		-1497.9,-138.1 -1495.6,-151.1 -1505.1,-160.3 -1492,-162.2 	"/>
	<polygon fill="#FE9F53" points="-1443.1,-174 -1437.3,-162.2 -1424.2,-160.3 -1433.7,-151.1 -1431.4,-138.1 -1443.1,-144.2 
		-1454.8,-138.1 -1452.6,-151.1 -1462,-160.3 -1449,-162.2 	"/>
	<polygon fill="#FE9F53" points="-1400.1,-174 -1394.2,-162.2 -1381.2,-160.3 -1390.6,-151.1 -1388.4,-138.1 -1400.1,-144.2 
		-1411.7,-138.1 -1409.5,-151.1 -1419,-160.3 -1405.9,-162.2 	"/>
	<polygon fill="none" stroke="#FE9F53" stroke-miterlimit="10" points="-1358.4,-174 -1352.5,-162.2 -1339.5,-160.3 -1348.9,-151.1 
		-1346.7,-138.1 -1358.4,-144.2 -1370,-138.1 -1367.8,-151.1 -1377.3,-160.3 -1364.2,-162.2 	"/>
</g>
<g>
	<g>
		<g>
			<g>
				<path fill="#FFFFFF" stroke="#02394C" stroke-width="0.25" stroke-miterlimit="10" d="M-1745,72.4v147.9h-166.2l-26.8-26.8V72.4
					c0-5.7,4.6-10.3,10.3-10.3h172.4C-1749.6,62.1-1745,66.7-1745,72.4z"/>
			</g>
			<path fill="#006FA6" d="M-1745,92.9h-193V72.4c0-5.7,4.6-10.3,10.3-10.3h172.4c5.7,0,10.3,4.6,10.3,10.3V92.9z"/>
			<g>
				<rect x="-1804.1" y="110" fill="#FE9F53" width="14" height="14"/>
				<rect x="-1826.3" y="110" fill="#BDBDBD" width="14" height="14"/>
				<rect x="-1848.5" y="110" fill="#BDBDBD" width="14" height="14"/>
				<rect x="-1870.7" y="110" fill="#BDBDBD" width="14" height="14"/>
				<rect x="-1892.8" y="110" fill="#BDBDBD" width="14" height="14"/>
				<rect x="-1915" y="110" fill="#BDBDBD" width="14" height="14"/>
				<rect x="-1781.9" y="133.6" fill="#FE9F53" width="14" height="14"/>
				<rect x="-1804.1" y="133.6" fill="#FE9F53" width="14" height="14"/>
				<rect x="-1826.3" y="133.6" fill="#BDBDBD" width="14" height="14"/>
				<rect x="-1848.5" y="133.6" fill="#BDBDBD" width="14" height="14"/>
				<rect x="-1870.7" y="133.6" fill="#BDBDBD" width="14" height="14"/>
				<rect x="-1892.8" y="133.6" fill="#BDBDBD" width="14" height="14"/>
				<rect x="-1915" y="133.6" fill="#BDBDBD" width="14" height="14"/>
				<rect x="-1781.9" y="157.3" fill="#FE9F53" width="14" height="14"/>
				<rect x="-1804.1" y="157.3" fill="#FE9F53" width="14" height="14"/>
				<rect x="-1826.3" y="157.3" fill="#BDBDBD" width="14" height="14"/>
				<rect x="-1848.5" y="157.3" fill="#BDBDBD" width="14" height="14"/>
				<rect x="-1870.7" y="157.3" fill="#BDBDBD" width="14" height="14"/>
				<rect x="-1892.8" y="157.3" fill="#BDBDBD" width="14" height="14"/>
				<rect x="-1915" y="157.3" fill="#BDBDBD" width="14" height="14"/>
				<rect x="-1781.9" y="180.9" fill="#FE9F53" width="14" height="14"/>
				<rect x="-1804.1" y="180.9" fill="#FE9F53" width="14" height="14"/>
				<rect x="-1826.3" y="180.9" fill="#BDBDBD" width="14" height="14"/>
				<rect x="-1848.5" y="180.9" fill="#BDBDBD" width="14" height="14"/>
				<rect x="-1870.7" y="180.9" fill="#BDBDBD" width="14" height="14"/>
			</g>
			<path fill="#26C6DA" d="M-1891.8,79.3h-16.2V64.1c0-4.5,3.6-8.1,8.1-8.1h0c4.5,0,8.1,3.6,8.1,8.1V79.3z"/>
			<path fill="#26C6DA" d="M-1774.9,79.3h-16.2V64.1c0-4.5,3.6-8.1,8.1-8.1l0,0c4.5,0,8.1,3.6,8.1,8.1V79.3z"/>
			<path fill="#02394C" d="M-1891.8,74h-16.2V58.8c0-4.5,3.6-8.1,8.1-8.1h0c4.5,0,8.1,3.6,8.1,8.1V74z"/>
			<path fill="#02394C" d="M-1774.9,74h-16.2V58.8c0-4.5,3.6-8.1,8.1-8.1l0,0c4.5,0,8.1,3.6,8.1,8.1V74z"/>
			<circle fill="#EEEEEE" cx="-1899.9" cy="59.2" r="5"/>
			<circle fill="#EEEEEE" cx="-1783" cy="59.2" r="5"/>
			<polygon fill="#02394C" points="-1911.2,193.6 -1937.9,193.6 -1911.2,220.3 			"/>
		</g>
	</g>
</g>
<g>
	<path fill-rule="evenodd" clip-rule="evenodd" fill="#006FA6" d="M-1470.7,181.6c9.7-1.7,14.9,3.3,13.1,12.7
		c-0.3,1.6,0.5,2.2,1.3,3c4.3,4.4,8.7,8.8,13.1,13.1c2.6,2.5,5.4,2.6,7.8,0.2c2.4-2.4,2.3-5.1-0.2-7.8c-3.6-3.8-7.4-7.4-11.1-11.1
		c-2-2-3.2-4.3-0.9-6.7c2.4-2.5,4.8-1.6,7,0.6c3.6,3.6,7.2,7.2,10.8,10.8c2.8,2.8,5.6,2.9,8,0.4c2.5-2.5,2.3-5.1-0.6-8
		c-3.6-3.6-7.2-7.2-10.8-10.8c-2-2-3.2-4.3-0.9-6.7c2.4-2.5,4.8-1.5,7,0.7c3.7,3.7,7.4,7.4,11.1,11.1c2.7,2.6,5.4,2.6,7.8,0.2
		c2.4-2.4,2.4-5-0.3-7.7c-3.7-3.7-7.4-7.4-11.1-11.1c-2.1-2.1-3.2-4.6-0.6-7c2.4-2.2,4.7-1.1,6.7,0.9c3.7,3.7,7.4,7.4,11.1,11.1
		c2.7,2.6,5.3,2.6,7.8,0.2c2.4-2.4,2.5-5.1-0.2-7.7c-17.8-17.9-35.7-35.7-53.5-53.5c-2.2-2.2-4.3-2.3-6.8-0.5
		c-3,2.2-5.1,5.1-6.9,8.3c-2.2,4-4,8.2-6.8,11.8c-7.6,9.3-21,8.4-27.1-1.8c-2.2-3.7-2.5-7.4-0.7-11.5c5.2-11.9,10.7-23.7,15.2-35.9
		c4-10.8,17.1-18.5,30.2-15.4c14.3,3.4,28.1,8.6,42.2,12.9c1.6,0.5,2.8,1.6,3.9,2.7c12.1,12.2,24.3,24.3,36.4,36.5
		c3.7,3.7,3.7,5.3,0,9.1c-7.7,7.7-15.3,15.4-23.1,23c-2,2-2.7,3.3-0.1,5.2c1.2,0.8,2.1,2,3.1,3.1c7.8,8,4.7,20.4-6.2,23.6
		c-2,0.6-3.1,1.1-3.6,3.4c-1.3,5.4-4.9,8.8-10.2,10.3c-1.9,0.5-2.9,1.1-3.3,3.2c-1.3,5.4-4.8,8.9-10.1,10.4c-2,0.6-3,1.3-3.6,3.5
		c-3,10.9-15.4,14.2-23.4,6.4c-4.3-4.2-8.6-8.5-12.8-12.8c-1.6-1.6-2.7-1.8-4.1,0c-1.1,1.3-2.4,2.5-3.7,3.7
		c-4.8,4.8-8.3,5.7-12.7,3.2c-4.6-2.6-6.1-6.6-4.7-13.1c-3.4,1.1-6.6,1.2-9.6-0.9c-2.1-1.4-4.3-3.3-4.1-5.6c0.4-5.5-2.2-6.4-7-7.1
		c-5.5-0.7-7.9-6.2-6.7-12.6c0-0.3,0-0.7,0.1-1c-0.3,0.1-0.6,0.2-0.8,0.4c-3.4,0.6-6.6,0.4-9.5-1.9c-4.5-3.7-5.1-9.3-1.4-13.8
		c0.2-0.2,0.4-0.4,0.6-0.6c2.1-2.2,5.8-4.4,5.9-6.7c0.1-2.7-3.9-4.7-6.1-7c-6.6-6.6-13.2-13.2-19.8-19.7c0-1.3,0-2.7,0-4
		c4.2-3,5.3-2.9,9.1,0.9c7.2,7.2,14.4,14.4,21.6,21.6c0.9,0.9,1.5,2,3.3,1.7c10.3-1.9,15.2,2.8,13.4,12.8c-0.3,0.1-0.7,0.2-0.4,0.6
		c0.1,0.1,0.6-0.1,0.8-0.2c9.5-1.9,14.2,2.8,13.4,13.3c10.5-0.8,15.1,3.8,13.3,13.4c-0.1,0.3-0.4,0.8-0.3,0.8
		C-1471.1,182.3-1470.8,182-1470.7,181.6z"/>
	<path fill-rule="evenodd" clip-rule="evenodd" fill="#FE9F53" d="M-1339.6,96.1c-4.1,5.3-9,9.8-13.8,14.5
		c-4.6,4.5-9.1,4.6-13.7,0.1c-11.1-10.9-22.1-21.9-33-33c-4.5-4.6-4.5-9.1-0.1-13.8c3.4-3.6,6.9-7.1,10.5-10.5
		c4.7-4.4,9.1-4.5,13.7,0.1c11.1,10.9,22,21.9,33,33c1.4,1.4,2.3,3.2,3.4,4.8C-1339.6,92.9-1339.6,94.5-1339.6,96.1z M-1360.4,104.9
		c3.6,0.1,7-3.1,7.1-6.7c0.2-3.7-2.8-7-6.6-7.1c-4.1-0.2-7.2,2.7-7.3,6.8C-1367.2,101.6-1364.2,104.7-1360.4,104.9z"/>
</g>
<g>
	<g>
		<rect x="-1088.1" y="77.3" fill="#02394C" width="108.5" height="29.6"/>
		<path fill="#02394C" d="M-1050,69.7h-33.4c-1.5,0-2.6-1.1-2.6-2.4l0,0c0-1.3,1.2-2.4,2.6-2.4h33.4c1.5,0,2.6,1.1,2.6,2.4l0,0
			C-1047.3,68.7-1048.5,69.7-1050,69.7z"/>
		<rect x="-1088.1" y="112.9" fill="#02394C" width="108.5" height="101.3"/>
		<rect x="-1080.1" y="122.8" fill="#02394C" width="17" height="15.3"/>
		<rect x="-1055" y="122.8" fill="#02394C" width="17" height="15.3"/>
		<rect x="-1029.8" y="122.8" fill="#02394C" width="17" height="15.3"/>
		<rect x="-1004.6" y="122.8" fill="#02394C" width="17" height="15.3"/>
		<rect x="-1080.1" y="145.2" fill="#02394C" width="17" height="15.3"/>
		<rect x="-1055" y="145.2" fill="#02394C" width="17" height="15.3"/>
		<rect x="-1029.8" y="145.2" fill="#02394C" width="17" height="15.3"/>
		<rect x="-1004.6" y="145.2" fill="#02394C" width="17" height="15.3"/>
		<rect x="-1080.1" y="167.7" fill="#02394C" width="17" height="15.3"/>
		<rect x="-1055" y="167.7" fill="#02394C" width="17" height="15.3"/>
		<rect x="-1029.8" y="167.7" fill="#02394C" width="17" height="15.3"/>
		<rect x="-1004.6" y="167.7" fill="#02394C" width="17" height="37.7"/>
		<rect x="-1080.1" y="190.1" fill="#02394C" width="17" height="15.3"/>
		<rect x="-1055" y="190.1" fill="#02394C" width="17" height="15.3"/>
		<rect x="-1029.8" y="190.1" fill="#02394C" width="17" height="15.3"/>
	</g>
	<g>
		<path fill="#006FA6" d="M-982.5,220h-110.3c-4.8,0-8.6-3.5-8.6-7.8V58.8c0-4.3,3.9-7.8,8.6-7.8h110.3c4.8,0,8.6,3.5,8.6,7.8v153.5
			C-973.9,216.5-977.7,220-982.5,220z"/>
		<rect x="-1091.9" y="74" fill="#FFFFFF" width="108.5" height="29.6"/>
		<path fill="#FE9F53" d="M-1053.7,66.4h-33.4c-1.5,0-2.6-1.1-2.6-2.4l0,0c0-1.3,1.2-2.4,2.6-2.4h33.4c1.5,0,2.6,1.1,2.6,2.4l0,0
			C-1051,65.3-1052.2,66.4-1053.7,66.4z"/>
		<rect x="-1091.9" y="109.5" fill="#FFFFFF" width="108.5" height="101.3"/>
		<g>
			<rect x="-1083.9" y="119.4" fill="#006FA6" width="17" height="15.3"/>
			<rect x="-1058.7" y="119.4" fill="#006FA6" width="17" height="15.3"/>
			<rect x="-1033.5" y="119.4" fill="#006FA6" width="17" height="15.3"/>
			<rect x="-1008.4" y="119.4" fill="#006FA6" width="17" height="15.3"/>
			<rect x="-1083.9" y="141.9" fill="#006FA6" width="17" height="15.3"/>
			<rect x="-1058.7" y="141.9" fill="#006FA6" width="17" height="15.3"/>
			<rect x="-1033.5" y="141.9" fill="#006FA6" width="17" height="15.3"/>
			<rect x="-1008.4" y="141.9" fill="#006FA6" width="17" height="15.3"/>
			<rect x="-1083.9" y="164.3" fill="#006FA6" width="17" height="15.3"/>
			<rect x="-1058.7" y="164.3" fill="#006FA6" width="17" height="15.3"/>
			<rect x="-1033.5" y="164.3" fill="#006FA6" width="17" height="15.3"/>
			<rect x="-1008.4" y="164.3" fill="#FE9F53" width="17" height="37.7"/>
			<rect x="-1083.9" y="186.7" fill="#006FA6" width="17" height="15.3"/>
			<rect x="-1058.7" y="186.7" fill="#006FA6" width="17" height="15.3"/>
			<rect x="-1033.5" y="186.7" fill="#006FA6" width="17" height="15.3"/>
		</g>
	</g>
</g>
<g>
	<path fill-rule="evenodd" clip-rule="evenodd" fill="#006FA6" d="M-578.6,214.5c-1.8-0.1-3.6,0-5.3,0.2c-0.7,0.1-1,0.4-1.1,1.1
		c-0.7,4.6-1.2,5.1-5.9,4.5c-8.9-1.1-17.7-2.1-26.5-3.4c-5.4-0.8-10.7-0.5-16-0.3c-16.2,0.6-32.4,1.4-48.6,2c-0.2,0-0.4,0-0.6,0
		c-4,0.1-4.9-0.8-5-4.8c-0.1-1.5-0.2-3.1-0.1-4.6c0-1-0.4-1.3-1.3-1.4c-1.5-0.2-2.9-0.4-4.4-0.6c-2.5-0.4-3.3-1.3-3.3-3.9
		c0-4,0.8-7.9,1.3-11.8c1.1-8.8,2.3-17.7,3.4-26.5c0.6-4.3,1-8.6,1.6-12.8c0.3-1.9,0.2-3.9,0.1-5.8c-0.5-14-1.1-28-1.7-42
		c-0.3-7.5-0.7-15.1-1-22.6c-0.1-2-0.3-4.1-0.3-6.1c0-2.8,1.1-3.9,3.8-4.1c2.1-0.1,4.3,0,6.4,0c2.2,0,2.8-0.5,3.1-2.7
		c0.5-2.9,1.4-3.6,4.3-3.3c2.2,0.2,4.3,0.5,6.5,0.8c1,0.1,1.5-0.1,1.5-1.3c0-1.9,0.4-3.8,1.1-5.7c2.3-6.4,7.9-9.8,14.8-8.9
		c6.3,0.9,11.2,6.1,11.6,12.6c0.1,1.8,0.2,3.6,0.2,5.3c0,0.8,0.1,1.2,1.1,1.2c14.4-0.6,28.7-1.2,43.1-1.8c4.4-0.2,8.7-0.3,13.1-0.5
		c1,0,2,0,3,0.2c1.3,0.3,1.9,1.1,2.1,2.4c0.3,2.1,0.2,4.3,0.2,6.4c0,1.2,0.5,1.7,1.6,1.8c1.3,0.1,2.7,0.3,4,0.5
		c2.7,0.5,3.5,1.3,3.3,4.1c-0.3,3.6-0.9,7.3-1.3,10.9c-1.2,9.9-2.5,19.8-3.7,29.8c-0.3,2.2-0.5,4.4-0.9,6.6
		c-0.7,4.1-0.4,8.2-0.3,12.3c0.6,20.1,1.8,40.2,2.5,60.3c0.1,3,0.4,5.9-0.1,8.9c-0.4,2.1-1.2,2.8-3.3,2.8
		C-576.6,214.5-577.6,214.5-578.6,214.5z M-657.9,83.6c0-2.7,0-5.4,0-8c0-0.8-0.3-1.1-1.1-1.2c-4.6-0.7-9.2-1.3-13.9-1.7
		c-0.9-0.1-1.3,0.2-1.4,1.2c-0.5,4.4-1,8.8-1.5,13.1c-1.3,10.6-2.7,21.1-4,31.7c-1.4,11.3-2.9,22.7-4.3,34
		c-1.4,10.7-2.7,21.4-4.1,32.1c-0.6,4.9-1.2,9.8-1.8,14.7c-0.2,2-0.2,2,1.9,2.2c2.1,0.2,4.1,0.5,6.2,0.8c10,1.2,19.9,2.5,29.9,3.7
		c10,1.2,19.9,2.5,29.9,3.7c9.8,1.2,19.6,2.4,29.3,3.7c1,0.1,1.3-0.1,1.5-1.2c1.3-9.8,2.6-19.6,3.9-29.4c2.1-16,4.2-32,6.1-48
		c2-16.2,4.1-32.4,5.9-48.7c0.1-1.2-0.1-1.5-1.3-1.7c-7.5-0.9-14.9-1.8-22.4-2.8c-7.6-0.9-15.1-1.9-22.7-2.9
		c-5.6-0.7-11.2-1.4-16.8-2.1c-0.9-0.1-1.3,0-1.4,1.1c-0.1,1.9,0,3.8,0,5.6c0.1,3.4,0.4,6.7-0.2,10.1c-0.7,4.2-4.3,7.3-8.6,7.5
		c-4.5,0.2-7.6-2.2-8.7-6.7C-658.2,90.8-657.9,87.2-657.9,83.6z"/>
	<path fill-rule="evenodd" clip-rule="evenodd" fill="#FE9F53" d="M-657.9,83.6c0,3.6-0.4,7.2,0.5,10.8c1.1,4.5,4.3,6.9,8.7,6.7
		c4.3-0.2,7.9-3.3,8.6-7.5c0.6-3.4,0.3-6.7,0.2-10.1c-0.1-1.9-0.1-3.8,0-5.6c0.1-1,0.5-1.2,1.4-1.1c5.6,0.7,11.2,1.4,16.8,2.1
		c7.6,1,15.1,1.9,22.7,2.9c7.5,0.9,14.9,1.9,22.4,2.8c1.1,0.1,1.4,0.5,1.3,1.7c-1.8,16.2-3.9,32.5-5.9,48.7c-2,16-4.1,32-6.1,48
		c-1.3,9.8-2.6,19.6-3.9,29.4c-0.1,1-0.5,1.3-1.5,1.2c-9.8-1.2-19.6-2.5-29.3-3.7c-10-1.2-19.9-2.5-29.9-3.7
		c-10-1.2-19.9-2.5-29.9-3.7c-2.1-0.3-4.1-0.5-6.2-0.8c-2-0.2-2.1-0.2-1.9-2.2c0.6-4.9,1.2-9.8,1.8-14.7c1.3-10.7,2.7-21.4,4.1-32.1
		c1.4-11.3,2.9-22.7,4.3-34c1.3-10.6,2.7-21.1,4-31.7c0.5-4.4,1-8.8,1.5-13.1c0.1-0.9,0.4-1.2,1.4-1.2c4.6,0.4,9.3,1,13.9,1.7
		c0.8,0.1,1.1,0.5,1.1,1.2C-657.9,78.2-657.9,80.9-657.9,83.6z M-611.6,93.1c-7.5,0-13.1,6.1-12.4,13.4c0.2,2.3,1.3,4.3,2.6,6.2
		c1.2,1.9,0.9,2.8-1.2,3.7c-1.1,0.5-2.3,0.9-3.4,1.4c-5.3,2.3-9.2,6.1-11.6,11.3c-1.9,4-0.2,7.2,4.1,8.1c0.9,0.2,1.8,0.4,2.8,0.5
		c7.9,1,15.7,2,23.6,2.9c3,0.4,6.1,0.8,9.2,0.9c3.6,0.1,5.6-2.2,5.2-5.8c-0.1-1.4-0.5-2.8-1-4.2c-1.9-5.5-5.5-9.5-10.3-12.6
		c-2.3-1.4-2.2-3-0.1-4.6c3.9-3.1,5.4-8.2,3.7-13.2C-602.3,96.2-606.5,93.1-611.6,93.1z M-646.1,174.9
		C-646.1,174.9-646.1,174.9-646.1,174.9c-0.5,0.1-1,0.1-1.5,0.1c-1.8,0.2-2.8,1-3,2.3c-0.3,1.6,0.5,2.9,2.2,3.6
		c1,0.5,2.1,0.7,3.1,0.9c5.4,0.6,10.8,1.1,16.2,1.8c8,1,15.9,2.1,23.8,3.1c1.7,0.2,3.4,0.6,5.2,0.3c2-0.3,2.9-1.1,3.1-2.7
		c0.2-1.6-0.6-2.7-2.3-3.4c-1.5-0.6-3.1-0.9-4.8-1c-9.8-0.8-19.6-2.3-29.4-3.5C-637.6,176-641.9,175.4-646.1,174.9z M-672,157.4
		c-0.7,0-1,0-1.3,0c-2,0.1-3.2,0.9-3.4,2.3c-0.3,1.9,0.4,3.1,2.5,3.8c1,0.3,2,0.6,3,0.7c7.6,0.7,15.2,1.7,22.7,2.7
		c5.6,0.7,11.1,1.4,16.7,2.1c1.4,0.2,2.5-0.2,3.3-1.3c0.8-1.1,0.8-2.2,0.2-3.4c-0.8-1.5-2.2-1.6-3.7-1.8c-9.2-1.2-18.5-2.3-27.7-3.5
		C-663.9,158.4-668.1,157.9-672,157.4z M-640.2,196.4C-640.2,196.4-640.2,196.4-640.2,196.4c0.3-0.1,0.6-0.1,0.9-0.1
		c2.1-0.1,3.2-0.7,3.5-2.1c0.4-2-0.5-3.3-2.6-4.1c-1.2-0.4-2.4-0.6-3.6-0.7c-9.1-0.7-18.1-2.2-27.1-3.2c-2.8-0.3-5.7-1.1-8.6-0.8
		c-1.4,0.1-2.5,0.5-2.8,2.1c-0.3,1.7,0.3,2.9,1.8,3.7c1,0.5,2,0.8,3.1,0.9c7.4,0.7,14.8,1.7,22.3,2.6
		C-649,195.4-644.6,195.9-640.2,196.4z M-628.1,155.2C-628.1,155.1-628.1,155.1-628.1,155.2c0.5-0.1,1-0.1,1.5-0.1
		c1.8,0,2.7-0.8,2.9-2.5c0.2-1.8-0.7-3.2-2.4-3.5c-7.6-1.4-15.3-2.4-23.1-2.8c-1.4-0.1-2.4,0.6-2.9,1.8c-0.5,1.4-0.1,2.5,0.9,3.5
		c0.7,0.6,1.6,0.8,2.5,1C-641.8,153.4-634.9,154.3-628.1,155.2z M-598.4,173.2c0.5,0,1.2,0,2-0.1c2.4-0.4,3.4-2.5,2.2-4.7
		c-0.6-1.1-1.6-1.4-2.7-1.6c-5.1-0.7-10.3-1.2-15.4-2.1c-2.1-0.4-4.3-0.7-6.5-0.3c-1.2,0.2-2.3,0.7-2.5,2.2
		c-0.2,1.4,0.3,2.5,1.6,3.2c0.8,0.4,1.6,0.7,2.5,0.9c2.5,0.6,5,0.8,7.5,1C-606,172-602.4,173.1-598.4,173.2z M-596.6,159.2
		c0.6,0,1.3,0,2-0.2c1.4-0.3,2.4-0.9,2.6-2.4c0.2-1.5-0.5-2.6-1.9-3.2c-0.8-0.3-1.6-0.7-2.4-0.8c-5.1-0.7-10.3-1.4-15.4-2.1
		c-1.2-0.2-2.5-0.2-3.7,0.2c-1.2,0.4-1.9,1.2-2,2.5c-0.1,1.2,0.3,2.3,1.5,2.8c0.6,0.3,1.2,0.5,1.8,0.7c2.1,0.6,4.2,0.8,6.3,1
		C-604.1,158.2-600.4,158.7-596.6,159.2z M-660.1,179.8c0.9,0.1,1.8,0,2.7-0.2c1.3-0.2,2.2-0.9,2.4-2.3c0.2-1.4-0.2-2.5-1.5-3.3
		c-1-0.6-2.1-0.9-3.2-1c-4.4-0.6-8.9-0.9-13.4-1.7c-1.2-0.2-2.5-0.2-3.7,0.2c-1.1,0.4-1.9,1-2,2.3c-0.1,1.3,0.1,2.5,1.4,3.2
		c0.8,0.5,1.7,0.7,2.7,0.9C-669.9,178.5-664.9,179-660.1,179.8z M-670.6,143.3c-0.6,0-1.4,0-2.2,0.1c-1.5,0.2-2.6,1.5-2.7,2.8
		c0,1.5,0.9,2.9,2.4,3.2c4.1,0.7,8.2,1.5,12.3,1.5c1.1,0,1.9-0.4,2.5-1.3c1.4-2.2,0.4-4.3-2.5-4.9
		C-663.9,144-667.1,143.5-670.6,143.3z"/>
	<path fill-rule="evenodd" clip-rule="evenodd" fill="#FBFCFC" d="M-611.6,93.1c5,0,9.2,3.1,10.9,8.1c1.7,5,0.3,10.2-3.7,13.2
		c-2.1,1.6-2.1,3.1,0.1,4.6c4.9,3.1,8.4,7.1,10.3,12.6c0.5,1.4,0.8,2.8,1,4.2c0.4,3.6-1.6,5.9-5.2,5.8c-3.1-0.1-6.1-0.6-9.2-0.9
		c-7.9-0.9-15.7-1.9-23.6-2.9c-0.9-0.1-1.9-0.3-2.8-0.5c-4.3-0.9-5.9-4.1-4.1-8.1c2.4-5.3,6.4-9,11.6-11.3c1.1-0.5,2.3-0.9,3.4-1.4
		c2-0.9,2.3-1.9,1.2-3.7c-1.2-1.9-2.4-3.9-2.6-6.2C-624.7,99.1-619,93.1-611.6,93.1z"/>
	<path fill-rule="evenodd" clip-rule="evenodd" fill="#FBFCFC" d="M-646.1,174.9c4.2,0.6,8.4,1.1,12.7,1.7
		c9.8,1.2,19.5,2.7,29.4,3.5c1.6,0.1,3.2,0.4,4.8,1c1.8,0.7,2.5,1.8,2.3,3.4c-0.2,1.5-1.1,2.4-3.1,2.7c-1.7,0.2-3.5-0.1-5.2-0.3
		c-8-1.1-15.9-2.2-23.8-3.1c-5.4-0.7-10.8-1.2-16.2-1.8c-1.1-0.1-2.1-0.4-3.1-0.9c-1.7-0.8-2.4-2-2.2-3.6c0.2-1.4,1.2-2.1,3-2.3
		C-647.1,174.9-646.6,174.9-646.1,174.9C-646.1,174.9-646.1,174.9-646.1,174.9z"/>
	<path fill-rule="evenodd" clip-rule="evenodd" fill="#FBFCFC" d="M-672,157.4c3.9,0.5,8.1,1,12.3,1.6c9.2,1.2,18.5,2.3,27.7,3.5
		c1.4,0.2,2.9,0.3,3.7,1.8c0.6,1.1,0.6,2.3-0.2,3.4c-0.8,1.1-1.9,1.5-3.3,1.3c-5.6-0.7-11.1-1.4-16.7-2.1
		c-7.6-0.9-15.1-1.9-22.7-2.7c-1-0.1-2.1-0.4-3-0.7c-2-0.7-2.8-1.9-2.5-3.8c0.2-1.4,1.4-2.2,3.4-2.3
		C-673,157.4-672.7,157.4-672,157.4z"/>
	<path fill-rule="evenodd" clip-rule="evenodd" fill="#FBFCFC" d="M-640.2,196.4c-4.4-0.5-8.7-1.1-13.1-1.6
		c-7.4-0.9-14.8-1.9-22.3-2.6c-1.1-0.1-2.1-0.4-3.1-0.9c-1.5-0.8-2.1-2-1.8-3.7c0.3-1.6,1.5-2,2.8-2.1c2.9-0.3,5.7,0.5,8.6,0.8
		c9,1,18,2.5,27.1,3.2c1.2,0.1,2.5,0.3,3.6,0.7c2.1,0.7,2.9,2.1,2.6,4.1c-0.2,1.4-1.3,2-3.5,2.1
		C-639.6,196.4-639.9,196.4-640.2,196.4C-640.2,196.4-640.2,196.4-640.2,196.4z"/>
	<path fill-rule="evenodd" clip-rule="evenodd" fill="#FBFCFC" d="M-628.1,155.2c-6.9-0.9-13.7-1.7-20.6-2.6c-0.9-0.1-1.8-0.3-2.5-1
		c-1-1-1.4-2.1-0.9-3.5c0.5-1.3,1.4-1.9,2.9-1.8c7.8,0.4,15.5,1.4,23.1,2.8c1.7,0.3,2.6,1.7,2.4,3.5c-0.2,1.6-1.1,2.4-2.9,2.5
		C-627.1,155.1-627.6,155.1-628.1,155.2C-628.1,155.1-628.1,155.1-628.1,155.2z"/>
	<path fill-rule="evenodd" clip-rule="evenodd" fill="#FBFCFC" d="M-598.4,173.2c-4-0.1-7.6-1.2-11.3-1.4c-2.5-0.2-5-0.4-7.5-1
		c-0.9-0.2-1.7-0.5-2.5-0.9c-1.3-0.7-1.8-1.7-1.6-3.2c0.2-1.4,1.3-1.9,2.5-2.2c2.2-0.4,4.3-0.1,6.5,0.3c5.1,0.9,10.3,1.4,15.4,2.1
		c1.1,0.1,2.1,0.5,2.7,1.6c1.2,2.2,0.2,4.3-2.2,4.7C-597.2,173.2-597.9,173.2-598.4,173.2z"/>
	<path fill-rule="evenodd" clip-rule="evenodd" fill="#FBFCFC" d="M-596.6,159.2c-3.8-0.5-7.5-1-11.2-1.4c-2.1-0.2-4.2-0.4-6.3-1
		c-0.6-0.2-1.2-0.4-1.8-0.7c-1.2-0.6-1.6-1.6-1.5-2.8c0.1-1.3,0.8-2.1,2-2.5c1.2-0.4,2.5-0.4,3.7-0.2c5.2,0.6,10.3,1.3,15.4,2.1
		c0.8,0.1,1.6,0.4,2.4,0.8c1.4,0.6,2.1,1.7,1.9,3.2c-0.2,1.5-1.2,2.2-2.6,2.4C-595.2,159.1-595.9,159.1-596.6,159.2z"/>
	<path fill-rule="evenodd" clip-rule="evenodd" fill="#FBFCFC" d="M-660.1,179.8c-4.9-0.9-9.8-1.3-14.7-1.9
		c-0.9-0.1-1.8-0.4-2.7-0.9c-1.3-0.7-1.5-1.9-1.4-3.2c0.1-1.2,0.9-1.9,2-2.3c1.2-0.4,2.5-0.4,3.7-0.2c4.4,0.8,8.9,1.1,13.4,1.7
		c1.1,0.2,2.2,0.4,3.2,1c1.3,0.7,1.7,1.9,1.5,3.3c-0.2,1.3-1.1,2-2.4,2.3C-658.3,179.8-659.2,179.9-660.1,179.8z"/>
	<path fill-rule="evenodd" clip-rule="evenodd" fill="#FBFCFC" d="M-670.6,143.3c3.5,0.2,6.7,0.7,9.9,1.3c2.9,0.6,3.9,2.7,2.5,4.9
		c-0.6,0.9-1.4,1.3-2.5,1.3c-4.2,0-8.2-0.8-12.3-1.5c-1.5-0.2-2.4-1.7-2.4-3.2c0-1.3,1.2-2.5,2.7-2.8
		C-671.9,143.3-671.1,143.3-670.6,143.3z"/>
</g>
<g>
	<path fill-rule="evenodd" clip-rule="evenodd" fill="#FE9F53" d="M-281.9,204.8c13.2,0,26.5,0,39.7,0c3.3,0,6.4,0.6,9.1,2.6
		c3.9,3.1,3.8,7.4-0.2,10.4c-2.4,1.8-5.2,2.5-8.1,2.5c-27.2,0-54.4,0-81.7,0c-3,0-5.9-0.8-8.3-2.8c-3.8-3.3-3.4-7.9,0.9-10.5
		c2.6-1.6,5.5-2.2,8.6-2.2C-308.6,204.8-295.2,204.8-281.9,204.8z"/>
	<path fill-rule="evenodd" clip-rule="evenodd" fill="#FE9F53" d="M-284.6,198.5c-8.6,0-17.2,0-25.8,0c-5.4,0-8.8-3-8.8-7.8
		c0-4.8,3.3-7.8,8.8-7.8c17.3,0,34.5,0,51.8,0c5.2,0,8.7,3.2,8.6,7.7c-0.1,4.7-3.4,7.8-8.6,7.8
		C-267.2,198.5-275.9,198.5-284.6,198.5z"/>
	<g>
		<path fill-rule="evenodd" clip-rule="evenodd" fill="#006FA6" d="M-236.7,72.9c-0.1-1-1-1.5-1.6-2.2c-3-3.2-3.3-7.6-0.7-11
			c2-2.6,6.5-3.6,9.9-1.8c6.8,3.6,12.6,8.5,18.7,13c6.8,5.1,13.5,10.5,20.6,15.1c5.7,3.7,5.9,11.9,0.2,15.2c-2.3,1.3-4.7,0.8-7,0.4
			c-2-0.4-3-0.3-4.3,1.9c-3.7,5.9-7.8,11.6-12.1,17.1c-3.9,5-7.5,10.1-11.2,15.1c-3.2,4.2-6.3,8.5-9.5,12.7c-0.3,0.4-0.6,0.9-1,1.2
			c-3,2.7-3,2.7,0.3,5.4c0.6,2.5,1.1,5,0.2,7.6c-0.1,0.4-0.1,0.9-0.2,1.3c-0.5,0.2-1,0.4-1.2,1c-5.2,3.4-8.9,3-13.8-0.7
			c-7.3-5.6-15.1-10.6-22.2-16.4c-5.1-4.1-11.2-7.1-15.4-12.3c-2.5-3.1-2.6-7.7-0.5-10.7c1.8-2.5,5.1-3.4,9-2.1
			c2.3,0.8,3.4,0.5,4.6-2c1.7-3.4,4.4-6.4,6.7-9.6c5.3-7.2,10.5-14.4,15.9-21.5c3.4-4.4,7-8.6,9.8-13.4c0.7-1.3,1.8-2.9,3.9-2.5
			c0.3,0.9,1,1.5,1.7,0.7C-235.1,73.7-235.8,73.1-236.7,72.9z M-280.9,123.7c-2.9,0.1-5.3,1.1-6.3,4c-0.9,2.4-0.5,4.6,1,6.9
			c2.3,3.5,6,5.2,9.1,7.7c4.1,3.3,8.5,6.1,12.6,9.4c3.2,2.5,6.9,4.4,9.7,7.3c3,3.1,7.2,4.6,10.9,6.7c2.1,1.2,7.1-1.3,8.1-3.2
			c1.3-2.5,0.4-6.1-2-8.7c-2.2-2.5-5.1-4-7.7-6c-9.4-7.4-19.1-14.3-28.6-21.5C-276.1,124.6-278.3,123.5-280.9,123.7z M-232.1,58.4
			c-4.4,0-6.8,2.5-6.9,6.9c-0.1,3.5,2.1,5.9,4.5,7.5c4.5,3.1,8.4,6.8,13.2,9.6c2,1.2,4.1,2.5,6,4.1c6.1,5.4,12.5,10.4,20,13.7
			c2.4,1,4.9,0.8,6.8-1.3c1.8-2,2.1-5.8,0.9-7.8c-3.4-5.6-9.4-8.2-14.2-12.2c-3.5-3-7.9-4.8-11.3-7.6c-3.1-2.6-6.1-5.4-9.4-7.8
			C-225.5,61.5-228,58.3-232.1,58.4z"/>
		<path fill-rule="evenodd" clip-rule="evenodd" fill="#006FA6" d="M-205.8,119.3c10.9,7.7,22.8,15.9,33.8,23.5
			c10.9,7.6,21.7,15.1,32.6,22.7c2.7,1.9,4.9,4.1,5.9,7.3c1.5,4.8-1.1,8.3-6.1,8.4c-3,0.1-5.7-0.9-8.1-2.6
			c-22.4-15.5-44.7-31.1-67-46.7"/>
		<path fill-rule="evenodd" clip-rule="evenodd" fill="#02394C" d="M-220.1,87c-7.6-5.4-15.3-10.9-22.9-16.3
			c-4.8-3.5-5.3-9.2-1.4-14.7c4-5.6,9.4-6.9,14.3-3.4c15.4,10.9,30.7,21.9,46,32.9c4.6,3.3,5,9.3,1.2,14.4c-4,5.4-9.5,6.9-14.1,3.6
			C-204.6,98-212.4,92.5-220.1,87z"/>
		<path fill-rule="evenodd" clip-rule="evenodd" fill="#02394C" d="M-267.5,155.6c-7.6-5.4-15.3-10.9-22.9-16.3
			c-4.8-3.5-5.3-9.2-1.4-14.7c4-5.6,9.4-6.9,14.3-3.4c15.4,10.9,30.7,21.9,46,32.9c4.6,3.3,5,9.3,1.2,14.4c-4,5.4-9.5,6.9-14.1,3.6
			C-252.1,166.7-259.8,161.1-267.5,155.6z"/>
	</g>
</g>
<g>
	<g>
		<path fill-rule="evenodd" clip-rule="evenodd" fill="#006FA6" d="M196.5,204c0-0.8,0-1.5,0-2.3c0-13,0-26.1,0-39.1
			c0-0.8,0-1.6,0.1-2.4c0.4-2.3,2.4-3.8,4.9-3.6c2.2,0.1,4.1,1.8,4.3,4c0.1,0.6,0,1.3,0,1.9c0,17.3,0,34.6,0,52
			c0,2.3-0.4,4.3-2.7,5.3c-2.2,0.9-4.1,0.1-5.8-1.5c-5.8-5.4-11.7-10.7-17.5-16.1c-1.4-1.3-2.8-1.8-4.7-1.8
			c-20.6,0.1-41.2,0.1-61.7,0c-10.7,0-19.2-6.3-22.1-16.3c-0.6-2-0.8-4.2-0.8-6.3c-0.1-17,0-34,0-51c0-13,9.9-22.8,23-22.8
			c14.9,0,29.9,0,44.8,0.1c2.2,0,2.8-0.6,2.8-2.8c-0.1-9-0.1-18,0-26.9c0-14.1,9.6-23.6,23.7-23.6c22.9,0,45.8,0,68.6,0
			c13.5,0,23,9.5,23,22.9c0,16.8,0,33.5,0,50.3c0,13.8-9.4,23.3-23.1,23.3c-20.7,0-41.3,0-62,0.1c-1.2,0-2.6,0.7-3.5,1.5
			c-5.6,5-11.2,10.1-16.8,15.2c-0.4,0.3-0.7,0.6-1.1,1c-1.7,1.7-3.7,2.6-6,1.6c-2.4-1-3-3-2.9-5.5c0.1-7.6,0-15.3,0-22.9
			c0-7.4,0-14.8,0-22.2c0-1.8-0.5-2.5-2.4-2.5c-15.3,0.1-30.5,0-45.8,0.1c-7.3,0-12.9,5.8-12.9,13.1c0,17.2,0,34.5,0,51.7
			c0,6.4,5.1,11.9,11.5,12.5c1.1,0.1,2.2,0.1,3.3,0.1c21.1,0,42.1,0,63.2,0c2.4,0,4.3,0.7,6,2.3c3.9,3.7,7.9,7.3,11.9,11
			C196.1,204.2,196.3,204.1,196.5,204z"/>
		<path fill-rule="evenodd" clip-rule="evenodd" fill="#FE9F53" d="M130.2,151.2c0,2.8-2,4.8-4.8,4.8c-2.9,0-5.1-2.1-5-4.8
			c0.1-2.7,2.1-4.6,5-4.6C128.3,146.6,130.2,148.4,130.2,151.2z"/>
		<path fill-rule="evenodd" clip-rule="evenodd" fill="#FE9F53" d="M141.3,146.5c2.8,0,4.9,1.9,5,4.6c0,2.7-2,4.8-4.8,4.8
			c-3,0-5-1.9-5-4.8C136.4,148.4,138.4,146.5,141.3,146.5z"/>
		<path fill-rule="evenodd" clip-rule="evenodd" fill="#006FA6" d="M205.2,90.1c-0.1,3.2,1.5,5.3,4.3,5.5c2.6,0.2,4.5-1.5,5.1-4.6
			c0.1-0.7,0.2-1.4,0.5-2.1c0.8-1.7,2.2-2.5,4-2.5c1.9,0,3.1,1,3.9,2.6c0.8,1.8,0,3-1.3,4.2c-1.8,1.6-3.7,3.2-5.4,5
			c-2,2-3.2,4.5-3.1,7.5c0.1,2.5,1.6,4.2,4,4.6c2.4,0.3,4.3-1,5.2-3.2c0.6-1.4,1.5-2.7,2.5-3.8c1-1.2,2.4-2.1,3.5-3.2
			c4.8-4.6,5.8-10.4,2.8-16c-3-5.5-9.3-8.3-15.4-6.8C209.7,78.8,205.4,84,205.2,90.1z M222.6,119.1c-0.1-2.8-2.1-4.8-4.9-4.7
			c-2.6,0.1-4.5,2.2-4.4,4.9c0.1,2.7,2.1,4.6,4.8,4.5C220.7,123.8,222.7,121.8,222.6,119.1z"/>
		<path fill-rule="evenodd" clip-rule="evenodd" fill="#FE9F53" d="M205.2,90.1c0.2-6.1,4.5-11.3,10.6-12.8
			c6.1-1.5,12.4,1.3,15.4,6.8c3.1,5.6,2.1,11.4-2.8,16c-1.1,1.1-2.5,2-3.5,3.2c-1,1.1-1.9,2.5-2.5,3.8c-1,2.2-2.8,3.5-5.2,3.2
			c-2.4-0.3-3.9-2.1-4-4.6c-0.1-3,1.1-5.4,3.1-7.5c1.7-1.7,3.6-3.3,5.4-5c1.3-1.1,2.1-2.4,1.3-4.2c-0.8-1.7-2-2.6-3.9-2.6
			c-1.8,0-3.2,0.8-4,2.5c-0.3,0.6-0.4,1.4-0.5,2.1c-0.6,3.1-2.5,4.8-5.1,4.6C206.7,95.3,205,93.3,205.2,90.1z"/>
		<path fill-rule="evenodd" clip-rule="evenodd" fill="#FE9F53" d="M222.6,119.1c0.1,2.7-1.9,4.7-4.6,4.8c-2.6,0.1-4.7-1.9-4.8-4.5
			c-0.1-2.7,1.8-4.8,4.4-4.9C220.5,114.3,222.6,116.3,222.6,119.1z"/>
	</g>
</g>
<g>
	<g>
		<path fill="#006FA6" d="M184.6,148.9c2.4-0.5,4.6-1.6,7-1.8c2.6-0.3,4.9-0.5,7.2-1.6c1.9-0.9,1.5-4.3-0.6-4.6
			c-4.1-0.6-8.2-0.3-12.3-0.3c-3.2,0-3.2,5,0,5c4.9,0,9.8-0.4,14.7-1c3.1-0.4,3.2-5.4,0-5c-4.9,0.6-9.8,1-14.7,1c0,1.7,0,3.3,0,5
			c3.7,0,7.4-0.5,11,0.1c-0.2-1.5-0.4-3-0.6-4.6c-2,0.9-4.3,0.8-6.4,1.1c-2.3,0.4-4.4,1.3-6.7,1.8
			C180.1,144.8,181.4,149.6,184.6,148.9L184.6,148.9z"/>
	</g>
</g>
<g>
	<g>
		<g>
			<path fill="#006FA6" d="M537.2,186.8c-20.8,0-37.6-16.3-38.3-37c-0.7-21.1,15.9-38.9,37-39.6c1,0,2,0,2.9,0
				c8.2-15.4,24-25.2,41.4-25.8c20.3-0.7,38.5,10.9,46.5,29.3c5.4-3.1,11.6-4.9,17.9-5.1c21.3-0.7,38.9,15.8,39.6,37
				c0.4,10.2-3.3,20-10.3,27.5c-7,7.5-16.5,11.8-26.7,12.2c-14,0.5-30.2,0.6-47.3,0.7c-19.9,0.1-40.5,0.2-61.4,1
				C538.1,186.8,537.6,186.8,537.2,186.8z"/>
		</g>
		<g>
			<path fill="#FE9F53" d="M581.7,164.9c-1.3,0-2.6-0.6-3.4-1.7l-15.6-20.6c-1-1.3-1.1-3-0.4-4.5c0.7-1.4,2.2-2.3,3.8-2.3h4.5v-19.6
				c0-1.6,1.3-2.8,2.8-2.8H590c1.6,0,2.8,1.3,2.8,2.8v19.6h4.5c1.6,0,3.1,0.9,3.8,2.3c0.7,1.4,0.6,3.2-0.4,4.5l-15.6,20.6
				C584.3,164.3,583.1,164.9,581.7,164.9z"/>
		</g>
		<g>
			<path fill="#FFFFFF" d="M615.7,171.9h-67.8c-3.3,0-5.9-2.7-5.9-5.9v-16.3c0-0.8,0.7-1.5,1.5-1.5c0.8,0,1.5,0.7,1.5,1.5V166
				c0,1.6,1.3,2.9,2.9,2.9h67.8c1.6,0,2.9-1.3,2.9-2.9v-16.3c0-0.8,0.7-1.5,1.5-1.5c0.8,0,1.5,0.7,1.5,1.5V166
				C621.6,169.2,618.9,171.9,615.7,171.9z"/>
		</g>
	</g>
</g>
<g>
	<path fill-rule="evenodd" clip-rule="evenodd" fill="#0277A5" d="M990,121.3c0,5.9-4.8,10.6-10.6,10.6h-59.7
		c-5.9,0-10.6-4.8-10.6-10.6V61.6c0-5.9,4.8-10.6,10.6-10.6h59.7c5.9,0,10.6,4.8,10.6,10.6V121.3z"/>
	<path fill-rule="evenodd" clip-rule="evenodd" fill="#0277A5" d="M1078.2,121.3c0,5.9-4.8,10.6-10.6,10.6h-59.7
		c-5.9,0-10.6-4.8-10.6-10.6V61.6c0-5.9,4.8-10.6,10.6-10.6h59.7c5.9,0,10.6,4.8,10.6,10.6V121.3z"/>
	<path fill-rule="evenodd" clip-rule="evenodd" fill="#0277A5" d="M1078.2,209.4c0,5.9-4.8,10.6-10.6,10.6h-59.7
		c-5.9,0-10.6-4.8-10.6-10.6v-59.7c0-5.9,4.8-10.6,10.6-10.6h59.7c5.9,0,10.6,4.8,10.6,10.6V209.4z"/>
	<path fill-rule="evenodd" clip-rule="evenodd" fill="#0277A5" d="M990,209.4c0,5.9-4.8,10.6-10.6,10.6h-59.7
		c-5.9,0-10.6-4.8-10.6-10.6v-59.7c0-5.9,4.8-10.6,10.6-10.6h59.7c5.9,0,10.6,4.8,10.6,10.6V209.4z"/>
	<path fill-rule="evenodd" clip-rule="evenodd" fill="#FE9F53" d="M944.8,181.1c-0.8-3.6-2.9-4.6-4.2-6.1c-1.5-1.8-4.2-3.5-1.4-6
		c2.5-2.2,4.3,0.1,5.6,1.8c3.2,4.2,5.9,4.4,9.2,0c1.4-1.9,3.4-4.2,6-1.4c2.3,2.5-0.1,4.3-1.8,5.6c-4.4,3.2-4.2,6,0.1,9.2
		c1.9,1.4,4.2,3.5,1.4,6c-2.5,2.2-4.3-0.1-5.6-1.8c-3.2-4.2-5.9-4.4-9.2-0.1c-1.4,1.9-3.4,4.3-6,1.4c-2.2-2.5,0.1-4.2,1.7-5.6
		C942,182.8,943.7,181.8,944.8,181.1z"/>
	<path fill-rule="evenodd" clip-rule="evenodd" fill="#FE9F53" d="M945,89.3c1.9-3.1,1.2-5.2,1.4-7.3c0.2-2.4-0.5-5.4,3.3-5.2
		c3.3,0.2,3,3.1,2.7,5.2c-0.7,5.2,1.1,7.3,6.5,6.5c2.3-0.3,5.4-0.6,5.2,3.2c-0.2,3.4-3.1,3-5.2,2.7c-5.4-0.8-7.2,1.3-6.5,6.5
		c0.3,2.3,0.5,5.4-3.2,5.2c-3.3-0.2-3-3.1-2.7-5.2c0.7-5.2-1.1-7.3-6.5-6.5c-2.3,0.3-5.4,0.6-5.2-3.2c0.2-3.3,3-2.8,5.2-2.8
		C941.9,88.6,943.8,89.1,945,89.3z"/>
	<path fill-rule="evenodd" clip-rule="evenodd" fill="#FE9F53" d="M1037.6,182.6c-3.3,0-6.6,0-9.9,0c-2.2,0-3.8-0.9-3.7-3.3
		c0.1-2.2,1.7-2.8,3.6-2.8c6.8,0,13.6,0,20.4,0c2,0,3.4,0.9,3.4,3.1c0,2.2-1.4,3.1-3.4,3.1C1044.5,182.6,1041.1,182.6,1037.6,182.6z
		"/>
	<path fill-rule="evenodd" clip-rule="evenodd" fill="#FE9F53" d="M1037.2,167.9c2.7,0,4,1.2,4.1,3.3c0,2.1-1.4,3.6-3.6,3.6
		c-1.9,0-3.2-1.2-3.4-3.2C1034.1,169.3,1035.4,168.2,1037.2,167.9z"/>
	<path fill-rule="evenodd" clip-rule="evenodd" fill="#FE9F53" d="M1037.2,183.3c2.7,0,4,1.2,4.1,3.3c0,2.1-1.4,3.6-3.6,3.6
		c-1.9,0-3.2-1.2-3.4-3.2C1034.1,184.7,1035.4,183.6,1037.2,183.3z"/>
	<path fill-rule="evenodd" clip-rule="evenodd" fill="#FE9F53" d="M1037.6,94.6c-3.3,0-6.6,0-9.9,0c-2.2,0-3.8-0.9-3.7-3.3
		c0.1-2.2,1.7-2.8,3.6-2.8c6.8,0,13.6,0,20.4,0c2,0,3.4,0.9,3.4,3.1c0,2.2-1.4,3.1-3.4,3.1C1044.5,94.6,1041.1,94.6,1037.6,94.6z"/>
</g>
<g>
	<path fill="#006FA6" d="M1385.9,79.3l-9.3-27.8h44l-9.3,27.8c19.1,15,53.1,47,53.1,85.9c0,36.4-29.5,54.4-65.9,54.4
		c-36.4,0-65.9-18-65.9-54.4C1332.8,126.3,1366.7,94.3,1385.9,79.3z"/>
	<polygon fill="#FE9F53" points="1414.3,70.5 1411.4,79.3 1385.9,79.3 1385.9,79.3 1382.9,70.5 	"/>
	<g>
		<path fill="#FFFFFF" stroke="#FFFFFF" stroke-miterlimit="10" d="M1396,187.7v-8.5c-4.9-0.1-9.9-1.6-12.8-3.7l2-5.6
			c3,2,7.4,3.6,12.1,3.6c6,0,10-3.4,10-8.2c0-4.6-3.3-7.5-9.5-10c-8.6-3.4-13.9-7.2-13.9-14.5c0-7,5-12.3,12.7-13.5v-8.5h5.2v8.1
			c5,0.2,8.5,1.5,10.9,2.9l-2.1,5.5c-1.8-1-5.2-2.9-10.6-2.9c-6.5,0-8.9,3.9-8.9,7.2c0,4.4,3.1,6.5,10.4,9.6c8.6,3.5,13,7.9,13,15.4
			c0,6.6-4.6,12.8-13.3,14.3v8.7H1396z"/>
	</g>
</g>
<g>
	<path fill-rule="evenodd" clip-rule="evenodd" fill="#006FA6" d="M1845.3,219.9c-2.4-0.6-4.8-1.1-7.2-1.7
		c-17.8-4.9-29.6-20.6-29.2-38.9c0.5-19.1,14.2-34.8,32.2-38c22.3-4,42.9,11.1,46.1,33.8c0.1,0.7,0.5,1.4,0.8,2c0,2,0,4,0,6
		c-0.3,0.7-0.7,1.3-0.8,2c-2.5,17.1-13.8,29.5-30.6,33.5c-1.8,0.4-3.6,0.8-5.3,1.2C1849.3,219.9,1847.3,219.9,1845.3,219.9z
		 M1833.8,180c0,8.3,6.3,14.9,14.5,14.9c8.1,0.1,14.8-6.6,14.8-14.7c0-8-6.4-14.5-14.4-14.6C1840.2,165.5,1833.8,171.7,1833.8,180z"
		/>
	<path fill-rule="evenodd" clip-rule="evenodd" fill="#006FA6" d="M1762,51.1c2.1,0.5,4.3,1.1,6.4,1.6c17.1,4.1,30.1,19.3,29.9,38.6
		c-0.2,19-13.9,35-32.2,38.4c-22,4-43.2-11.3-46.1-33.4c-0.1-0.8-0.5-1.6-0.8-2.4c0-2,0-4,0-6c0.3-0.7,0.7-1.3,0.8-2
		c2.4-16.9,13.4-29.1,29.9-33.3c2-0.5,4-1,6.1-1.5C1758,51.1,1760,51.1,1762,51.1z M1773.5,90.6c0-8.2-6.7-14.7-14.8-14.6
		c-8,0.2-14.5,6.7-14.5,14.7c0,8.1,6.5,14.6,14.8,14.6C1767.3,105.4,1773.6,99,1773.5,90.6z"/>
	<path fill-rule="evenodd" clip-rule="evenodd" fill="#FE9F53" d="M1867,56.3c5.1,5.1,10.7,10.7,15.9,15.9
		c-47.4,47.4-95,94.9-142.3,142.2c-5-5-10.5-10.7-15.8-16C1771.9,151.4,1819.4,103.9,1867,56.3z"/>
</g>
<g>
	<path fill-rule="evenodd" clip-rule="evenodd" fill="#006FA6" d="M2282.5,152.9c-7.5-3.8-13.6-9-17.7-16.4
		c-0.2-0.3-0.4-0.7-0.5-1.1c0-0.1-0.1-0.1-0.4-0.3c0.1,1.3,0.3,2.3,0.4,3.3c0.1,1.1,0.2,2.2,0.3,3.4c0.6,11.3-1.7,21.8-9.6,30.4
		c-2.5,2.7-5,5.4-7.6,8.1c-1.6,1.6-3.3,3.3-4.9,4.9c-7.2,7.1-12,15.5-13,25.7c-0.5,0.2-0.7-0.2-0.9-0.4c-8-10.2-11.4-21.1-6.1-33.7
		c1.3-3,2.1-6.3,2.5-9.5c0.4-3,0.4-5.9-0.6-8.8c-0.4-1-0.8-2.1-1.9-3c0.6,6.8-0.2,13.2-2.5,19.3c-1.8,4.9-4.5,9.3-8.2,12.9
		c-9.4,8.9-11.6,19.4-7.7,31.5c0,0.1,0,0.3,0,0.6c-0.8-0.4-1.5-0.8-2.2-1.2c-8-4.8-15.3-10.5-21.1-18.1
		c-9.7-12.7-10.2-26.4-1.6-39.9c2.5-3.9,5.4-7.3,8.7-10.5c0.5-0.4,1-0.8,1.4-1.4c-5.8,1.5-10.7,4.6-14.9,8.8
		c-4.2,4.3-6.9,9.4-8.4,15.3c-0.1-0.7-0.3-1.4-0.4-2.1c-0.6-4.7-0.6-9.5,0.6-14.2c1.1-4.3,3.3-7.8,7-10.4c2.9-2,6-3.9,9.1-5.6
		c5.8-3.3,8.6-8.2,8.6-14.9c0-4.2-0.1-8.3-0.2-12.5c-0.1-5.6,1-10.9,3.2-16c0.7-1.6,1.6-3.2,3.1-5c-0.7,3.8-0.9,7.1-0.4,10.4
		c0.7,4.9,2.7,9.2,6,12.9c8.6,9.7,8.1,21-1.5,29.9c-1.7,1.6-3.3,3.2-4.7,5.1c-0.7,1-1.4,2-1.7,3.6c2-1,3.5-2.1,4.9-3.3
		c5.2-4,9.4-8.8,12.7-14.5c3.6-6.3,3.9-12.7,1.3-19.4c-2.1-5.6-5.3-10.6-9-15.3c-0.5-0.7-1-1.4-1.5-2l0.1-0.1
		c6.1,3.3,12,7.1,17,12.6c-1.5-10.8-5.6-19.6-15-25.4c10.4-1.4,20.4-0.4,29.9,4.4c0.2-0.6-0.2-0.8-0.6-1.1
		c-9.1-6.4-18.6-12.1-29.8-13.9c-7.7-1.2-15.1-0.4-22.1,3.4c-2.5,1.4-5.2,2.3-8.1,2.1c-2.7-0.2-3.6-1-4-3.6
		c-0.2-1.2-0.1-2.4-0.7-3.7c-3.9,5.8-8.9,10.2-14.6,14.1c-2.1-12.9,9.5-27.3,22.9-28.6c-4.1,7.5-4.7,9.2-4,13
		c10.9-15.6,26.6-21.3,44.7-21.3c13.8,0,25.7,5.5,35.8,14.9c-9.4-3.2-18.8-6.5-29.1-5.1c0.4,0.9,1.2,0.7,1.7,0.8
		c15.7,3.1,29.4,9.9,39.3,22.8c8.1,10.6,12.2,22.8,13.8,35.9c0.8,6.3,0.7,12.6,0.7,19c0,4.4,0.3,8.7,1.8,12.9
		C2282.7,152.6,2282.6,152.8,2282.5,152.9L2282.5,152.9z"/>
	<path fill-rule="evenodd" clip-rule="evenodd" fill="#FE9F53" d="M2142.2,122.2c-1.1,0.7-2.2,1.4-3.4,2.1c-1.1,0.6-2.3,0.9-3.4,0.4
		c-1.8-0.7-3.5-0.5-5.1,0.6c-1.2,0.8-1.4,0.2-1.6-0.8c-0.3-2.2,0.3-4,1.6-5.7c1-1.3,2.3-2.3,3.7-3.3c3.9-2.6,7.8-5.2,11.6-7.9
		c1.9-1.3,1.9-1.5,0.2-3.1c-2.6-2.4-2.7-3-0.3-5.7c5.3-5.8,11.3-10.7,18.3-14.3c1.6-0.8,3.4-1.5,5.2-1.9c1.4-0.3,1.4,0.2,1,1.3
		c-0.6,1.5-1.1,3.1-1.7,4.7c-1,2.9-0.9,3.4,1.7,5.1c3,1.9,6,3.7,9.1,5.6c2.8,1.7,5.3,3.7,6.9,6.6c0.8,1.4,1.3,2.9,1.2,4.7
		c-3.4-2.3-6.9-2.6-10.5-0.8c-1.4,0.7-1.7,1.3-0.9,2.8c2.8,5.2,2.3,10.3-1,15.5c-2.3-4.2-4.9-7.5-10.4-7.8c1.9,2.1,3.5,4,3.6,6.8
		c-2.3-2.1-4.7-3.7-8-3.9c2.5,2.6,4.3,5.2,5.4,8.4c0.7,2,0.7,4,0.6,6c-0.1,1.2-1.7,0.1-2.1,1.2c0.3,0.2,0.6,0.4,1.1,0.8
		c-1.5,0.3-2.5-0.8-3.9-0.4c0.3,0.9,1.5,0.8,1.8,1.6c-0.1,0.1-0.2,0.1-0.2,0.2c-1.3-0.4-2.4-1.3-4.3-1.5c1.9,1.5,3.5,2.7,4.9,4
		c0.9,0.8,2.1,1.4,1.9,3l0,0c-1.7-2.8-4.5-4.2-7.2-5.6c-0.7-0.4-1.1,0.2-1.5,0.6c-2.2,2.3-4.9,2.7-7.8,1.7c-2.5-0.8-5-1.8-7.4-2.6
		c-1.4-0.5-2.8-0.8-3.8,0.8c-0.4,0.8-0.9,0.2-1.3-0.1c-2.9-3.1-4.1-7-4.5-11.1c-0.1-1.1,0.8-0.9,1.3-0.6c2.1,1.1,3.3,0.3,4.3-1.6
		c0.3-0.6,0.9-1.2,1.6-1.4c2.2-0.6,3-2.4,3.5-4.3c0.1-0.1,0.1-0.3,0.2-0.4C2142.4,122.1,2142.3,122.2,2142.2,122.2z M2153.3,101.2
		c-1.8,0.6-2.9,2.9-1.9,4.5c1.3,1.8,0.5,2.8-0.6,4.1c-0.3,0.3-0.6,0.7-0.8,1.1c1.1-0.3,2-0.9,2.8-1.6c1.1-1,2.1-1.4,3.7-0.8
		c1.5,0.6,3.5,0.6,4.4-0.9c1.3-2,2.8-3,5.6-2.7c-3.3-2.7-6.2-3.5-9.5-1.4c-0.3,0.2-0.7,0.3-1.1,0.5c-0.9,0.3-2,0.8-2.8,0
		C2152.2,103,2152.8,102,2153.3,101.2c-0.1-0.1-0.1-0.3-0.1-0.4c-0.1,0-0.1,0-0.2,0C2152.9,101,2153.1,101.1,2153.3,101.2z"/>
	<path fill-rule="evenodd" clip-rule="evenodd" fill="#FE9F53" d="M2152.4,161c0.3,2.5,2,4.1,3.6,5.8v-0.1c-4.4-1-8.6-2.5-12.4-4.9
		c-2.7-1.7-3.6-4.8-4-7.9c-0.4-3.3,0.3-6.5,1.2-9.7c0.3-1,0.8-1.2,1.7-1c3.7,0.7,7.2,2,10.3,4.2c1.2,0.9,2.3,1.9,2.6,3.3
		c0.9,3.8,3.6,5.5,6.9,6.6c0.4,0.2,0.9,0.3,1.3,0.4c0.1,0,0.1,0.1,0.3,0.3c-3.7,0.9-7,0.4-10.1-2c0.1,3,1.7,5.1,3.5,7.4
		c-2.1-0.4-3.3-1.7-4.6-2.8c-0.1-0.1-0.2-0.1-0.3-0.2C2152.4,160.7,2152.4,160.9,2152.4,161z"/>
	<path fill-rule="evenodd" clip-rule="evenodd" fill="#FE9F53" d="M2187.5,87.4c0.4-0.9,2.1-0.9,1.7-1.8c-0.3-0.9-1.8-0.6-2.7-0.7
		c-3.6-0.3-6.3,1.5-8.8,3.8c-0.8,0.7-1.2,0.9-2.1,0.1c-1.1-1-2.3-1.7-3.5-2.6c0.5-0.9,1.4-1.3,2.3-1.8c4.3-2.3,8.9-3.7,13.8-3.8
		c5.5-0.2,8.7,4,7,9.3c-1.1,3.5-2.9,6.6-4.8,9.7c-0.6,0.9-1,0.8-1.6,0.2c-0.6-0.6-1.2-1-1.8-1.5c-0.9-0.9-2.7-1.1-2.8-2.2
		c0-1,1.3-2.1,1.9-3.1c2.2-3.5,2.2-3.5,3.7-3.9C2189.4,88,2188.2,88,2187.5,87.4z"/>
	<path fill-rule="evenodd" clip-rule="evenodd" fill="#006FA6" d="M2165.1,146.7c0.1,0,0.2,0,0.3,0c0,0,0-0.1,0-0.1
		C2165.3,146.7,2165.2,146.7,2165.1,146.7C2165.2,146.8,2165.1,146.7,2165.1,146.7z"/>
	<path fill-rule="evenodd" clip-rule="evenodd" fill="#006FA6" d="M2202.9,99.5c-0.2,0-0.3,0-0.3-0.3c0.1,0.1,0.3,0.1,0.4,0.2
		L2202.9,99.5z"/>
	<path fill-rule="evenodd" clip-rule="evenodd" fill="#006FA6" d="M2163,141c0.2,0,0.4,0.1,0.2,0.3c0,0-0.3-0.1-0.5-0.1
		C2162.8,141.2,2162.9,141.1,2163,141z"/>
	<path fill-rule="evenodd" clip-rule="evenodd" fill="#006FA6" d="M2156,166.9c0,0-0.1-0.1-0.1-0.1
		C2155.9,166.8,2155.9,166.8,2156,166.9C2156,166.8,2156,166.9,2156,166.9z"/>
	<path fill-rule="evenodd" clip-rule="evenodd" fill="#006FA6" d="M2282.5,153c0.1,0,0.1-0.1,0.2-0.1c0,0,0,0.1,0,0.2
		C2282.7,153,2282.6,152.9,2282.5,153L2282.5,153z"/>
	<path fill-rule="evenodd" clip-rule="evenodd" fill="#006FA6" d="M2153.3,101.2c-0.2,0-0.4-0.1-0.2-0.4c0,0,0.1,0,0.2,0
		C2153.2,100.9,2153.2,101,2153.3,101.2C2153.3,101.2,2153.3,101.2,2153.3,101.2z"/>
	<path fill-rule="evenodd" clip-rule="evenodd" fill="#006FA6" d="M2142.2,122.2c0.1,0,0.3-0.1,0.4-0.1c-0.1,0.1-0.1,0.3-0.2,0.4
		C2142.3,122.4,2142.2,122.3,2142.2,122.2z"/>
	<path fill-rule="evenodd" clip-rule="evenodd" fill="#006FA6" d="M2152.4,161c0-0.2,0-0.3,0-0.5c0.1,0.1,0.2,0.1,0.3,0.2
		C2152.6,160.8,2152.5,160.9,2152.4,161z"/>
</g>
<g>
	<g>
		<path fill="#006FA6" d="M2696.6,110.2c-9.7-7-19.3-14-29-20.9c-1-0.7-1.5-1.5-1.5-2.8c0.1-8.4,0.1-16.9,0-25.3
			c0-1.7-0.5-3.5-1.4-5c-1.8-3.1-5.5-4.3-8.9-3.4c-3.5,1-5.9,4.2-5.9,8c0,5.2,0,10.4,0,16c-1-0.7-1.6-1.1-2.2-1.5
			c-9.7-7-19.4-13.9-29.1-20.8c-3.4-2.4-6.7-2.4-10,0c-26,18.7-52,37.4-77.9,56.1c-3.1,2.2-4.1,5.6-3,9.1c1.1,3.4,4.4,5.8,8,5.5
			c1.8-0.1,3.6-1,5.4-1.5c0,0.6,0,1.3,0,2.1c0,10.1,0,20.2,0,30.3c0,0.2,0,0.4,0,0.6c7.6-6.3,17.4-10.1,28.1-10.1
			c24.4,0,44.2,19.8,44.2,44.2c0,10.6-3.7,20.4-10,28c0.5,0,1,0.1,1.5,0.1c24,0,48-0.1,71.9,0.1c5.9,0,9.8-3.5,9.7-9.7
			c-0.2-27.8-0.1-55.6-0.1-83.4c0-0.7,0-1.3,0-2.3c0.5,0.4,0.8,0.6,1,0.7c5.3,3.2,11.9,0.3,12.8-5.8
			C2700.7,114.8,2699.3,112.1,2696.6,110.2z"/>
	</g>
	<g>
		<path fill="#FE9F53" stroke="#FE9F53" stroke-miterlimit="10" d="M2573.9,211v-6.1c-3.5-0.1-7.2-1.2-9.3-2.7l1.5-4.1
			c2.2,1.5,5.3,2.6,8.8,2.6c4.3,0,7.2-2.5,7.2-6c0-3.3-2.4-5.4-6.9-7.2c-6.2-2.4-10-5.2-10-10.5c0-5,3.6-8.9,9.2-9.8v-6.1h3.8v5.9
			c3.6,0.1,6.1,1.1,7.9,2.1l-1.5,4c-1.3-0.7-3.8-2.1-7.7-2.1c-4.7,0-6.4,2.8-6.4,5.2c0,3.2,2.2,4.7,7.5,6.9
			c6.3,2.6,9.4,5.7,9.4,11.1c0,4.8-3.3,9.3-9.6,10.3v6.3H2573.9z"/>
	</g>
</g>
<g>
	<g>
		<g>
			<path fill-rule="evenodd" clip-rule="evenodd" fill="#006FA6" d="M3056.1,78.2c0.1-1,0.2-1.8,0.3-2.7c0.3-3.9,2.1-6,6-6.1
				c6-0.2,11.9-0.2,17.9,0c3.2,0.1,5.3,2.9,5.3,6.8c0,10,0.1,20.1,0,30.1c0,2.7,0.8,4.7,2.6,6.5c7.2,7.4,14.3,14.9,21.5,22.3
				c1.6,1.6,1.8,3.4,1.1,5.3c-0.7,1.8-2.3,2.4-4.1,2.5c-3.4,0.1-6.8,0.2-10.2,0c-3.1-0.2-4.2,0.9-4.1,4c0.1,10.2,0,20.5,0,30.7
				c0,12.8-0.1,25.6,0.1,38.4c0,3-0.8,3.8-3.8,3.8c-17.8-0.1-35.6-0.1-53.5,0c-22.6,0-45.2,0-67.8,0.1c-3.1,0-4-0.8-4-3.9
				c0.2-22.5,0.1-45,0.2-67.5c0-5.4,0-5.5-5.6-5.4c-2.5,0-4.9,0-7.4,0.1c-2.4,0-4.6-0.4-5.7-2.7c-1.2-2.3,0.3-4.1,1.8-5.6
				c5.2-5.6,10.6-11.1,15.8-16.6c8-8.5,15.8-17.2,24.1-25.3c13.3-13.1,25.8-26.9,38.9-40.2c1.8-1.8,2.9-2.2,4.9-0.1
				c7.7,8.1,15.5,16.1,23.3,24.2C3054.3,77.3,3054.7,78.1,3056.1,78.2z M3027.9,213.8C3027.9,213.8,3027.9,213.8,3027.9,213.8
				c18.5,0,36.9,0,55.4,0.1c2.7,0,3.5-0.9,3.5-3.5c-0.1-21.8-0.2-43.5-0.2-65.3c0-4.9,3.1-8,8-7.8c1.8,0.1,3.6,0.1,5.4,0.1
				c0.8,0,1.9,0.4,2.2-0.7c0.2-0.8-0.5-1.3-1-1.8c-6.4-6.6-12.6-13.3-19.1-19.8c-1.6-1.7-2.3-3.4-2.3-5.6c0.1-10.5-0.1-20.9,0-31.4
				c0-2.2-0.6-2.8-2.7-2.7c-2.9,0.1-5.8,0-8.6,0c-6,0-6.1,0-6.3,5.9c-0.1,2.3-0.7,4.2-3.1,5.1c-2.3,0.9-4.3,0.3-6.2-1.3
				c-2.1-1.8-3.6-4.2-5.5-6.2c-5.4-5.8-10.9-11.4-16.3-17.1c-3.2-3.4-3.3-3.3-6.5,0.2c-11.3,12.1-22.5,24.3-34.2,36.1
				c-11.2,11.3-22,22.9-33,34.3c-1.3,1.3-4.1,2.7-3.2,4.5c0.7,1.4,3.7,0.5,5.7,0.5c7.4-0.1,9.6,2,9.6,9.4c0,21,0.1,42-0.1,63.1
				c0,3.2,0.8,4.2,4.1,4.1C2991.6,213.7,3009.8,213.8,3027.9,213.8z"/>
			<path fill-rule="evenodd" clip-rule="evenodd" fill="#006FA6" d="M3027.9,213.8c-18.1,0-36.3-0.1-54.4,0.1
				c-3.3,0-4.1-0.9-4.1-4.1c0.2-21,0.1-42,0.1-63.1c0-7.4-2.2-9.4-9.6-9.4c-2,0-5,0.9-5.7-0.5c-0.9-1.8,1.9-3.2,3.2-4.5
				c11.1-11.4,21.9-23,33-34.3c11.7-11.8,22.9-24,34.2-36.1c3.2-3.5,3.3-3.6,6.5-0.2c5.4,5.7,11,11.3,16.3,17.1
				c1.9,2,3.3,4.4,5.5,6.2c1.8,1.6,3.8,2.2,6.2,1.3c2.3-0.9,3-2.8,3.1-5.1c0.2-5.9,0.3-5.9,6.3-5.9c2.9,0,5.8,0.1,8.6,0
				c2.1-0.1,2.7,0.6,2.7,2.7c-0.1,10.5,0,20.9,0,31.4c0,2.3,0.6,4,2.3,5.6c6.4,6.5,12.7,13.2,19.1,19.8c0.5,0.5,1.3,1,1,1.8
				c-0.3,1.1-1.4,0.7-2.2,0.7c-1.8,0-3.6,0-5.4-0.1c-4.9-0.2-8.1,2.9-8,7.8c0.1,21.8,0.1,43.5,0.2,65.3c0,2.6-0.8,3.5-3.5,3.5
				C3064.9,213.8,3046.4,213.8,3027.9,213.8C3027.9,213.8,3027.9,213.8,3027.9,213.8z M3027,201.4c8.3,0.2,15.9-1.4,23.1-5
				c9.7-5,13.6-12.3,12.1-23c-0.1-1.1-0.2-2.1-0.4-3.2c-1.5-12.7-6.5-23.8-15.7-32.7c-1.4-1.4-1.7-2.6-1.3-4.5
				c1.9-9-1.4-16.9-9.1-21.7c-8.5-5.4-23.1-0.9-26.6,8.5c-1.7,4.6-2.5,9.5-0.7,14.4c0.5,1.4,0.3,2.3-0.8,3.4
				c-11.5,11.1-15.9,25.1-16.2,40.7c-0.1,7.1,3.1,12.3,8.8,16C3008.4,199.6,3017.5,201.7,3027,201.4z"/>
			<path fill-rule="evenodd" clip-rule="evenodd" fill="#FEFEFE" d="M3027,201.4c-9.5,0.3-18.6-1.8-26.8-7.1c-5.7-3.7-9-8.9-8.8-16
				c0.3-15.6,4.7-29.6,16.2-40.7c1.1-1,1.3-2,0.8-3.4c-1.8-4.9-1-9.8,0.7-14.4c3.5-9.5,18.1-14,26.6-8.5c7.7,4.9,11,12.8,9.1,21.7
				c-0.4,1.9-0.2,3.1,1.3,4.5c9.3,8.9,14.3,20,15.7,32.7c0.1,1.1,0.2,2.1,0.4,3.2c1.5,10.7-2.4,18.1-12.1,23
				C3042.9,200,3035.3,201.6,3027,201.4z M3027,195.8c9.1-0.2,17.6-2,24.9-7.7c3.1-2.4,5-5.5,4.8-9.6c-0.1-2.7-0.3-5.3-0.6-8
				c-1.1-10.3-5.2-19.2-12-27c-1.6-1.8-2.8-2.8-5.3-0.5c-6.8,6.2-16.5,6.3-23.5,1c-3.5-2.7-3.5-2.7-6.5,0.5c-0.6,0.6-1,1.3-1.6,2
				c-7.4,9.5-9.8,20.6-10.1,32.3c-0.1,3.5,1.4,6.5,4,8.7C3008.6,193.9,3017.6,195.6,3027,195.8z M3039.6,128.2
				c-0.1-7.5-6.2-13.9-13.1-13.7c-7.2,0.2-13.2,6.5-13.2,13.9c0,7.6,6.1,13.8,13.6,13.6C3033.7,141.9,3039.7,135.4,3039.6,128.2z"/>
			<path fill-rule="evenodd" clip-rule="evenodd" fill="#FE9F53" d="M3027,195.8c-9.4-0.2-18.4-2-25.8-8.3c-2.6-2.2-4.1-5.1-4-8.7
				c0.3-11.7,2.7-22.8,10.1-32.3c0.5-0.7,1-1.4,1.6-2c2.9-3.2,3-3.2,6.5-0.5c6.9,5.4,16.6,5.2,23.5-1c2.5-2.3,3.8-1.4,5.3,0.5
				c6.7,7.8,10.8,16.7,12,27c0.3,2.6,0.5,5.3,0.6,8c0.2,4.1-1.7,7.2-4.8,9.6C3044.7,193.8,3036.1,195.6,3027,195.8z"/>
			<path fill-rule="evenodd" clip-rule="evenodd" fill="#FE9F53" d="M3039.6,128.2c0.1,7.2-5.9,13.6-12.7,13.8
				c-7.4,0.1-13.6-6-13.6-13.6c0-7.4,6-13.7,13.2-13.9C3033.4,114.3,3039.5,120.8,3039.6,128.2z"/>
		</g>
		<g>
			<path fill="#006FA6" d="M2965.2,137.2c0.6,3.7,4,5.8,5.2,9.2c0.8,2.2,0.5,5.1,0.9,7.4c0.5,3.3,1.1,6.5,1.4,9.9
				c0.7,7.2-0.3,13.7-1.4,20.7c-1.2,8.1-3.9,25.1,7.3,27.7c2.6,0.6,4.6-3.4,1.9-4.6c-2.8-1.2-5.5-2.2-8.6-2.5
				c-2.4-0.2-3,2.8-1.8,4.3c1,1.3,2.1,1.6,3.6,2.2c3,1.1,4.3-3.7,1.3-4.8c-0.5-0.3-0.9-0.6-1.4-0.9c-0.6,1.4-1.2,2.8-1.8,4.3
				c2.2,0.2,4.1,0.9,6.1,1.8c0.6-1.5,1.3-3,1.9-4.6c-8.9-2-3.7-22.5-2.6-28.4c1.2-7,0.7-14.1-0.3-21.1c-0.6-4.5-0.7-9.6-2.2-13.8
				c-1.1-3-4.3-4.9-4.8-8C2969.6,132.7,2964.8,134,2965.2,137.2L2965.2,137.2z"/>
		</g>
		<g>
			<path fill="#006FA6" d="M2983,210.9c7.2,3.8,14.6,3.9,22.6,3c9.5-1,19.1-0.6,28.7-1.5c8.8-0.8,17.5,1.6,26.2,2.4
				c4.6,0.5,9.3-0.4,13.8-1.2c3-0.6,7.6-0.9,9.8-3.5c3.7-4.2,2.6-9.7,2.5-14.9c-0.2-8.4-0.2-16.8-0.8-25.1c-0.5-6.2-1.3-12.4-1-18.6
				c0.2-3.2,0.8-6.3,2.3-9.2c2.1-3.9,5.5-4.6,9.6-4.5c2.2,0.1,3.3-2.8,1.8-4.3c-8.5-8.1-22.5-18.3-20.5-31.4
				c0.8-5.5,1.5-10.7,1.2-16.3c-0.2-3.4-0.2-8.1-2.7-10.7c-2.2-2.3-6.5-0.7-8.9,0.2c-3.2,1.2-4.9,3.6-5.8,6.8
				c-1.8,5.7-9.9,4.2-13.3,0.9c-4.6-4.6-9.5-8.9-14.5-13.1c-2.5-2.1-6,1.5-3.5,3.5c4.6,3.9,9.7,7.6,13.6,12.1
				c2.8,3.2,5.8,4.7,9.9,5.2c3.6,0.4,7.7,0,10.3-2.8c3.2-3.4,1.7-7.2,7.3-8.6c3.8-1,2.8,12.2,2.6,14.8c-0.3,4.8-2.1,9.5-1.3,14.4
				c0.8,5.4,4.1,9.4,7.4,13.5c4.5,5.4,9.7,10.3,14.7,15.1c0.6-1.4,1.2-2.8,1.8-4.3c-5.9-0.2-9.9,1.2-13.4,6.1
				c-3,4.2-3.5,9.9-3.6,14.9c-0.3,13.8,2.2,27.6,1.9,41.4c-0.1,3,0.6,5.9,0.2,8.9c-0.6,4.6-8.9,4.7-12.5,5.3
				c-9.3,1.5-18.7-1.4-28-2.1c-4.2-0.3-8.3,0.1-12.5,0.7c-4.8,0.6-9.6,0.3-14.4,0.3c-9.9,0-19.6,3.2-28.9-1.7
				C2982.7,205,2980.1,209.4,2983,210.9L2983,210.9z"/>
		</g>
		<g>
			<path fill="#006FA6" d="M3037.7,69.9c-3.5-2.2-6.5-13-12.4-7.7c-6.1,5.4-12.3,11.9-17.2,18.3c-8.1,10.5-16,20.7-25.2,30.4
				c-4,4.2-8.3,7.8-12.5,11.7c-4.6,4.3-7.6,8.2-13.6,10.7c-2.4,1-2.4,4.9,0.7,4.9c0.8,0,1.6,0,2.5,0c3.2,0,3.2-5,0-5
				c-0.8,0-1.6,0-2.5,0c0.2,1.6,0.4,3.3,0.7,4.9c8.8-3.7,13.6-10.4,20.8-16.4c9.3-7.8,17.2-17.6,24.7-27.1
				c3.6-4.5,6.9-9.3,10.5-13.8c2.8-3.4,6.2-6.2,9.2-9.4c1.2-1.3,2.4-2.6,3.6-3.9c1.7-1.8,1.3-1.9,2.7,0c1.8,2.4,2.8,5.2,5.4,6.8
				C3038,75.9,3040.5,71.5,3037.7,69.9L3037.7,69.9z"/>
		</g>
	</g>
	<g>
		<path fill="#006FA6" d="M2956.9,136.1c-0.2-1.4,4.6-3.4,5.6-4.2c2.7-2.3,4.7-5.2,7.3-7.7c5.1-4.8,8.7-10.5,14.3-14.6
			c-1.2-0.9-2.4-1.9-3.7-2.8c-0.8,2.7-3.2,4.7-5,6.7c-1.3,1.4-3.3,4.8-5.2,4.8c0.8,0.8,1.7,1.7,2.5,2.5c-0.1-2.4,6.3-5,7.8-6.9
			c2-2.5-1.1-5.8-3.5-3.5c-0.6,0.5-1.1,1-1.7,1.4c-2.6,1.9-0.1,6.2,2.5,4.3c1-0.7,1.8-1.4,2.7-2.2c-1.2-1.2-2.4-2.4-3.5-3.5
			c-2.8,3.6-9.6,4.9-9.2,10.4c0.1,1.3,1.1,2.5,2.5,2.5c4-0.1,5.4-2.6,7.9-5.3c2.7-3,6.1-5.8,7.2-9.8c0.5-2-1.8-4.2-3.7-2.8
			c-2.7,2-5.8,3.8-7.7,6.7c-2.9,4.3-6.4,7.3-9.9,11c-2.9,3.1-5.4,5.3-8.8,7.7c-2.4,1.7-3.5,3.8-3,6.7
			C2952.6,140.6,2957.4,139.2,2956.9,136.1L2956.9,136.1z"/>
	</g>
	<g>
		<path fill="#006FA6" d="M2952.6,139.2c3.2,0.2,6.4-0.1,9.7,0.1c4.9,0.3,4.2,6,4.2,9.9c-0.1,6.2-0.3,12.3-0.1,18.5
			c0.2,5.6,1.8,11.4,1.8,17c0,3.2,5,3.2,5,0c0-3.1-1-6.4-1.3-9.4c-0.4-3.8-0.5-7.5-0.5-11.3c-0.1-6.9,0.4-13.7-0.1-20.6
			c-0.3-4.1-0.9-7-5-8.4c-4.2-1.5-9.2-0.5-13.5-0.7C2949.4,134,2949.4,139,2952.6,139.2L2952.6,139.2z"/>
	</g>
	<g>
		<path fill="#006FA6" d="M2967.1,184.2c0.1,6.2-0.2,12.4-1.2,18.5c-0.6,4.2-0.5,7.8,2.3,11.1c2.3,2.7,6.7,2.9,9.9,2.9
			c6.7,0.1,13.3-0.4,20,0.1c14.1,1.1,28.2,0.3,42.3-0.1c7-0.2,13.9-0.5,20.9-0.3c7.4,0.2,14.8,0.8,22.2-0.1c3.2-0.4,3.2-5.4,0-5
			c-11.7,1.4-23.7-0.1-35.4,0.1c-12.8,0.3-25.6,1-38.4,0.8c-5.7-0.1-11.4-0.5-17.1-0.9c-5.1-0.4-10.3,0.4-15.5,0.3
			c-7.8-0.1-6.4-6.4-5.5-12.2c0.7-5,0.7-10.3,0.6-15.3C2972.1,181,2967.1,181,2967.1,184.2L2967.1,184.2z"/>
	</g>
	<g>
		<path fill="#006FA6" d="M3079.5,216.9c2.6,0,6,0.2,8.1-1.6c2.9-2.5,2-6.1,1.4-9.5c-1-5.5-0.2-10.3-0.1-15.7
			c0-5.3-0.5-11.4-1.6-16.6c-0.7-3.1-5.5-1.8-4.8,1.3c1.5,6.9,1.8,15.2,0.8,22.2c-0.4,2.8,0.1,5.6,0.6,8.3c0.2,1.2,1.7,5.8-0.4,6.4
			c-1.2,0.3-2.7,0.1-3.9,0.1C3076.2,211.9,3076.2,216.9,3079.5,216.9L3079.5,216.9z"/>
	</g>
	<g>
		<path fill="#006FA6" d="M3088.3,161.6c0-3,0.3-5.9,0.7-8.8c0.4-3-1-6.6,0.4-9.4c2.3-4.6,11.5-3.3,15.5-4.7
			c1.6-0.6,2.7-2.9,1.1-4.2c-4.1-3.2-7.5-6.1-10.9-10.2c-2.8-3.5-6.1-6-10.1-7.9c-2.9-1.4-5.4,2.9-2.5,4.3c3.9,1.9,7,4.3,9.6,7.8
			c3,4,6.5,6.5,10.4,9.5c0.4-1.4,0.7-2.8,1.1-4.2c-6.1,2.1-12.3,0.8-17.5,5.6c-2.2,2-2.4,5.1-2.2,7.9c0.3,4.8-0.6,9.5-0.7,14.3
			C3083.2,164.8,3088.2,164.8,3088.3,161.6L3088.3,161.6z"/>
	</g>
	<g>
		<path fill="#006FA6" d="M3091.9,123.6c-3.2-3.5-6-7.3-8.6-11.3c-3.1-4.8-1.7-9.5-1.9-14.8c-0.1-3.2-5.1-3.2-5,0
			c0.1,5.7-1.1,10.7,1.7,15.9c2.6,4.9,6.5,9.6,10.2,13.7C3090.5,129.5,3094.1,126,3091.9,123.6L3091.9,123.6z"/>
	</g>
	<g>
		<path fill="#006FA6" d="M3082.9,111.1c-1.6-2.6-0.4-7.1-0.2-10c0.4-5-0.1-10.1,0.1-15.2c0.3-6,0-13.2-7.5-13.8
			c-5.5-0.4-13-1.3-16.3,4.1c-0.5,0.9-0.8,2.1-0.8,3.2c-0.1,0.7-0.1,1.4-0.1,2.1c0,0.4,0.1,6.7-3.1,2.4c-2.6-3.4-5.3-6.3-8.4-9.3
			c-2.8-2.8-5.3-5.9-8.5-8.3c-2.2-1.6-4.2-3.3-6.2-5.1c-1.3-1.2-2.1-2.9-3.6-3.8c-2.4-1.4-4.7,0.1-6.2,2c-1.3,1.7-2.1,3.6-3.4,5.2
			c-1.7,2.1-4,3.6-5.8,5.7c-2.8,3.2-4.8,6.2-8.1,9c-3.8,3.1-6.9,6.9-10.2,10.4c-3.3,3.5-7.3,6.2-10.5,9.8c-3.3,3.8-5.8,8.3-9,12.3
			c-2,2.5,1.5,6.1,3.5,3.5c5.6-7.1,10.1-14.1,17.1-20c3.4-2.8,6.1-6.3,9.2-9.5c2.5-2.6,6-4.3,8.1-7.2c2.9-3.9,5.8-7.1,9.3-10.5
			c1.1-1.1,1.9-2.6,2.7-3.9c1.3-2.2,0.9-2.5,2.6-0.3c2.7,3.4,6.8,5.7,10,8.5c3.1,2.9,6,6.2,9,9.1c3.4,3.3,7,11.3,13.2,7.9
			c1.9-1.1,3-2.7,3.2-4.9c0.1-1.4,0.1-2.7,0.1-4.1c0-3.1,2.9-3.4,5.4-3.5c3.8-0.1,8.9-1.1,9.4,3.8c0.5,4.5-0.2,9.4-0.2,14
			c0,5.5-2.2,13.9,0.8,18.8C3080.3,116.4,3084.7,113.9,3082.9,111.1L3082.9,111.1z"/>
	</g>
	<g>
		<path fill="#006FA6" d="M2989,95.1c-2.4,2.9-3.9,6.2-5.8,9.4c-2.4,4.3-6.6,7.6-10.4,10.5c-3.4,2.6-6.6,5.6-9.5,8.7
			c-2.8,3.1-6.8,4.7-9.7,7.8c-2.2,2.4,1.4,5.9,3.5,3.5c2.5-2.8,5.9-4.4,8.7-6.8c3.7-3.2,6.8-6.9,10.8-9.9c3.3-2.5,6.3-5.2,8.9-8.4
			c2.8-3.5,4.1-7.9,7-11.3C2994.6,96.2,2991.1,92.7,2989,95.1L2989,95.1z"/>
	</g>
	<g>
		<path fill="#006FA6" d="M3083.2,161.4c-0.2,5.1,0.7,10.2,0.8,15.3c0,3.2,5,3.2,5,0c-0.1-5.1-0.9-10.1-0.8-15.3
			C3088.3,158.2,3083.3,158.2,3083.2,161.4L3083.2,161.4z"/>
	</g>
</g>
<g>
	<g>
		<circle fill="#005B81" cx="3435.8" cy="135.5" r="85"/>
		<circle fill="#004D6E" cx="3435.8" cy="135.5" r="76"/>
		<circle fill="#FFFFFF" cx="3435.8" cy="135.5" r="71.7"/>
		<path fill="#FE9F53" d="M3435.8,71.2c38.2,0,69.5,30,71.5,67.7c0.1-1.3,0.1-2.6,0.1-4c0-39.6-32.1-71.7-71.7-71.7
			s-71.7,32.1-71.7,71.7c0,1.3,0,2.7,0.1,4C3366.3,101.1,3397.6,71.2,3435.8,71.2z"/>
		<path fill="#005B81" d="M3443.8,135.5c0,4.4-3.6,8-8,8c-4.4,0-8-3.6-8-8c0-4.4,3.6-8,8-8C3440.2,127.5,3443.8,131.1,3443.8,135.5z
			"/>
		<g>
			<path fill="#005B81" d="M3435.8,138.5c-1.7,0-3-1.3-3-3V86.9c0-1.7,1.3-3,3-3c1.7,0,3,1.3,3,3v48.6
				C3438.8,137.2,3437.5,138.5,3435.8,138.5z"/>
		</g>
		<g>
			<path fill="#005B81" d="M3404.3,156.7c-1,0-2-0.5-2.6-1.5c-0.8-1.4-0.3-3.3,1.1-4.1l31.5-18.2c1.4-0.8,3.3-0.3,4.1,1.1
				c0.8,1.4,0.3,3.3-1.1,4.1l-31.5,18.2C3405.4,156.5,3404.9,156.7,3404.3,156.7z"/>
		</g>
		<circle fill="#FFFFFF" cx="3435.8" cy="135.5" r="4.6"/>
		<g>
			<g>
				<g>
					<g>
						<path fill="#004D6E" d="M3435.8,76.9c-1.1,0-2-0.9-2-2V63.2c0-1.1,0.9-2,2-2c1.1,0,2,0.9,2,2v11.7
							C3437.8,76,3436.9,76.9,3435.8,76.9z"/>
					</g>
					<g>
						<path fill="#004D6E" d="M3435.8,209.8c-1.1,0-2-0.9-2-2v-11.7c0-1.1,0.9-2,2-2c1.1,0,2,0.9,2,2v11.7
							C3437.8,208.9,3436.9,209.8,3435.8,209.8z"/>
					</g>
				</g>
				<g>
					<g>
						<path fill="#004D6E" d="M3508.1,137.5h-11.7c-1.1,0-2-0.9-2-2c0-1.1,0.9-2,2-2h11.7c1.1,0,2,0.9,2,2
							C3510.1,136.6,3509.2,137.5,3508.1,137.5z"/>
					</g>
					<g>
						<path fill="#004D6E" d="M3375.2,137.5h-11.7c-1.1,0-2-0.9-2-2c0-1.1,0.9-2,2-2h11.7c1.1,0,2,0.9,2,2
							C3377.2,136.6,3376.3,137.5,3375.2,137.5z"/>
					</g>
				</g>
			</g>
			<g>
				<g>
					<g>
						<path fill="#004D6E" d="M3405.5,85c-0.7,0-1.4-0.4-1.7-1l-5.8-10.1c-0.6-1-0.2-2.2,0.7-2.7c1-0.6,2.2-0.2,2.7,0.7l5.8,10.1
							c0.5,1,0.2,2.2-0.7,2.7C3406.2,84.9,3405.9,85,3405.5,85z"/>
					</g>
					<g>
						<path fill="#004D6E" d="M3472,200.1c-0.7,0-1.4-0.4-1.7-1l-5.8-10.1c-0.6-1-0.2-2.2,0.7-2.7c1-0.6,2.2-0.2,2.7,0.7l5.8,10.1
							c0.6,1,0.2,2.2-0.7,2.7C3472.7,200,3472.3,200.1,3472,200.1z"/>
					</g>
				</g>
				<g>
					<g>
						<path fill="#004D6E" d="M3488.3,107.2c-0.7,0-1.4-0.4-1.7-1c-0.6-1-0.2-2.2,0.7-2.7l10.1-5.8c1-0.6,2.2-0.2,2.7,0.7
							c0.5,1,0.2,2.2-0.7,2.7l-10.1,5.8C3489,107.1,3488.7,107.2,3488.3,107.2z"/>
					</g>
					<g>
						<path fill="#004D6E" d="M3373.2,173.6c-0.7,0-1.4-0.4-1.7-1c-0.6-1-0.2-2.2,0.7-2.7l10.1-5.8c1-0.6,2.2-0.2,2.7,0.7
							c0.5,1,0.2,2.2-0.7,2.7l-10.1,5.8C3373.9,173.6,3373.6,173.6,3373.2,173.6z"/>
					</g>
				</g>
			</g>
			<g>
				<g>
					<g>
						<path fill="#004D6E" d="M3383.3,107.2c-0.3,0-0.7-0.1-1-0.3l-10.1-5.8c-1-0.6-1.3-1.8-0.7-2.7c0.6-1,1.8-1.3,2.7-0.7l10.1,5.8
							c1,0.6,1.3,1.8,0.7,2.7C3384.7,106.8,3384,107.2,3383.3,107.2z"/>
					</g>
					<g>
						<path fill="#004D6E" d="M3498.4,173.6c-0.3,0-0.7-0.1-1-0.3l-10.1-5.8c-1-0.6-1.3-1.8-0.7-2.7c0.6-1,1.8-1.3,2.7-0.7l10.1,5.8
							c1,0.6,1.3,1.8,0.7,2.7C3499.8,173.3,3499.1,173.6,3498.4,173.6z"/>
					</g>
				</g>
				<g>
					<g>
						<path fill="#004D6E" d="M3466.1,85c-0.3,0-0.7-0.1-1-0.3c-1-0.6-1.3-1.8-0.7-2.7l5.8-10.1c0.5-1,1.8-1.3,2.7-0.7
							c1,0.5,1.3,1.8,0.7,2.7l-5.8,10.1C3467.5,84.6,3466.8,85,3466.1,85z"/>
					</g>
					<g>
						<path fill="#004D6E" d="M3399.7,200.1c-0.3,0-0.7-0.1-1-0.3c-1-0.5-1.3-1.8-0.7-2.7l5.8-10.1c0.6-1,1.8-1.3,2.7-0.7
							c1,0.5,1.3,1.8,0.7,2.7l-5.8,10.1C3401,199.7,3400.4,200.1,3399.7,200.1z"/>
					</g>
				</g>
			</g>
		</g>
		<g>
			
				<rect x="3429.4" y="149.9" transform="matrix(0.7071 0.7071 -0.7071 0.7071 1117.687 -2396.3081)" fill="#FE9F53" width="43.6" height="2"/>
		</g>
		<circle fill="#FE9F53" cx="3435.8" cy="135.5" r="3.1"/>
	</g>
</g>
<g>
	<path fill-rule="evenodd" clip-rule="evenodd" fill="#FE9F53" d="M3806.4,52.4c0,8.6-0.3,17.2,0,25.8c0.2,4.8-1.6,6.1-6.2,6
		c-8.6-0.3-17.2-0.1-25.8-0.1C3783.8,72.3,3794.2,61.5,3806.4,52.4z"/>
	<g>
		<path fill-rule="evenodd" clip-rule="evenodd" fill="#006FA6" d="M3806.4,52.4c1.8-2.7,4.5-1.8,7-1.9c25.5-0.1,51,0.1,76.6-0.1
			c5.2,0,7.1,1.4,7.1,6.9c-0.2,52.1-0.2,104.1,0,156.2c0,5.2-1.3,7.1-6.8,7.1c-36.8-0.2-73.5-0.2-110.3,0c-5.1,0-7.2-1.2-7.2-6.8
			c0.2-41.4,0.1-82.7,0.1-124.1c0-2-0.4-4.1,1.5-5.6c8.6,0,17.2-0.2,25.8,0.1c4.5,0.1,6.3-1.2,6.2-6
			C3806.1,69.6,3806.4,61,3806.4,52.4z"/>
		<path fill-rule="evenodd" clip-rule="evenodd" fill="#006FA6" d="M3806.4,52.4c1.8-2.7,4.5-1.8,7-1.9c25.5-0.1,51,0.1,76.6-0.1
			c5.2,0,7.1,1.4,7.1,6.9c-0.2,52.1-0.2,104.1,0,156.2c0,5.2-1.3,7.1-6.8,7.1c-36.8-0.2-73.5-0.2-110.3,0c-5.1,0-7.2-1.2-7.2-6.8
			c0.2-41.4,0.1-82.7,0.1-124.1c0-2-0.4-4.1,1.5-5.6c8.6,0,17.2-0.2,25.8,0.1c4.5,0.1,6.3-1.2,6.2-6
			C3806.1,69.6,3806.4,61,3806.4,52.4z"/>
		<g>
			<path fill="#FFFFFF" d="M3872,120.4h-50.6c-0.5,0-0.9-0.8-0.9-1.7c0-0.9,0.4-1.7,0.9-1.7h50.6c0.5,0,0.9,0.8,0.9,1.7
				C3872.9,119.7,3872.5,120.4,3872,120.4z"/>
		</g>
		<g>
			<path fill="#FFFFFF" d="M3864.4,108.1H3798c-0.7,0-1.2-0.8-1.2-1.7c0-0.9,0.5-1.7,1.2-1.7h66.5c0.7,0,1.2,0.8,1.2,1.7
				C3865.6,107.4,3865.1,108.1,3864.4,108.1z"/>
		</g>
		<g>
			<path fill="#FFFFFF" d="M3872,143.3h-50.6c-0.5,0-0.9-0.8-0.9-1.7c0-0.9,0.4-1.7,0.9-1.7h50.6c0.5,0,0.9,0.8,0.9,1.7
				C3872.9,142.6,3872.5,143.3,3872,143.3z"/>
		</g>
		<g>
			<path fill="#FFFFFF" d="M3864.4,131H3798c-0.7,0-1.2-0.8-1.2-1.7c0-0.9,0.5-1.7,1.2-1.7h66.5c0.7,0,1.2,0.7,1.2,1.7
				C3865.6,130.3,3865.1,131,3864.4,131z"/>
		</g>
		<g>
			<path fill="#FFFFFF" d="M3872,168h-50.6c-0.5,0-0.9-0.8-0.9-1.7c0-0.9,0.4-1.7,0.9-1.7h50.6c0.5,0,0.9,0.8,0.9,1.7
				C3872.9,167.2,3872.5,168,3872,168z"/>
		</g>
		<g>
			<path fill="#FFFFFF" d="M3864.4,155.7H3798c-0.7,0-1.2-0.7-1.2-1.7s0.5-1.7,1.2-1.7h66.5c0.7,0,1.2,0.8,1.2,1.7
				S3865.1,155.7,3864.4,155.7z"/>
		</g>
		<g>
			<path fill-rule="evenodd" clip-rule="evenodd" fill="#FE9F53" d="M3867.7,190.9c0,3.5,0,7.1,0,10.6c0,2.6-1.4,3.2-3.7,3.1
				c-2-0.1-3-0.9-3-2.9c0-7.1,0-14.1,0-21.2c0-2.2,0.8-3.5,3.3-3.6c2.5,0,3.4,1.1,3.4,3.4C3867.7,183.8,3867.7,187.4,3867.7,190.9z"
				/>
			<path fill-rule="evenodd" clip-rule="evenodd" fill="#FE9F53" d="M3877.5,196c0,1.9,0,3.8,0,5.7c0,1.9-0.9,2.9-2.9,3
				c-2.1,0-3.7-0.4-3.7-3c0-3.2,0-6.5,0-9.7c0-2.6-0.6-5.7,3.8-5.4c4,0.3,2.6,3.3,2.9,5.4C3877.6,193.3,3877.5,194.6,3877.5,196
				C3877.5,196,3877.5,196,3877.5,196z"/>
			<path fill-rule="evenodd" clip-rule="evenodd" fill="#FE9F53" d="M3857.9,197.8c-1,2.3,1.9,6.5-3.2,6.8c-5.8,0.3-3.5-4.3-3.6-6.9
				c-0.1-2.4-1.8-6.5,3.3-6.4C3859.7,191.3,3857.1,195.4,3857.9,197.8z"/>
		</g>
	</g>
</g>
<g>
	<path fill-rule="evenodd" clip-rule="evenodd" fill="#006FA6" d="M4234,196.7c-32.6,0-65.1,0-97.7,0c-5,0-7.3-2.4-7.3-7.4
		c0-43.8,0-87.6,0-131.5c0-4.4,2.4-6.8,6.9-6.8c65.4,0,130.8,0,196.2,0c4.6,0,6.9,2.3,6.9,7c0,43.8,0,87.5,0,131.3
		c0,5-2.4,7.4-7.3,7.4C4299,196.7,4266.5,196.7,4234,196.7z M4233.7,65.7c-30.3,0-60.5,0-90.7,0c-1.6,0-2.3,0.2-2.3,2.1
		c0.1,33.6,0.1,67.2,0,100.8c0,1.7,0.4,2.2,2.1,2.2c60.6,0,121.1,0,181.7,0c1.6,0,2.2-0.3,2.2-2.1c-0.1-33.6-0.1-67.2,0-100.8
		c0-1.7-0.4-2.2-2.2-2.2C4294.2,65.7,4264,65.7,4233.7,65.7z"/>
	<path fill-rule="evenodd" clip-rule="evenodd" fill="#006FA6" d="M4236.2,199.3c10,0,20,0,30,0c1.5,0,2,0.4,2,2
		c-0.1,2.6-0.1,5.3,0,7.9c0,1.2-0.3,1.6-1.5,1.6c-3.3-0.1-6.6,0-9.9,0c-16.9,0-33.7,0-50.6,0c-1.7,0-2.3-0.4-2.2-2.1
		c0.2-2.4,0.1-4.9,0-7.4c-0.1-1.5,0.4-2,1.9-2C4216,199.3,4226.1,199.3,4236.2,199.3z"/>
	<path fill-rule="evenodd" clip-rule="evenodd" fill="#006FA6" d="M4236.3,219.9c-10.7,0-21.3,0-32,0c-2.9,0-3.2-0.8-2.2-3.6
		c1.2-3.6,3.3-4.5,7-4.4c19.1,0.2,38.1,0.1,57.2,0.1c1.6,0,2.5,0.4,3,2c0.3,1.1,1,2.1,1.5,3.2c0.8,1.9,0.3,2.8-1.8,2.8
		C4258,219.9,4247.2,219.9,4236.3,219.9z"/>
	<path fill-rule="evenodd" clip-rule="evenodd" fill="#FE9F53" d="M4233.7,65.7c30.2,0,60.5,0,90.7,0c1.8,0,2.2,0.5,2.2,2.2
		c-0.1,33.6-0.1,67.2,0,100.8c0,1.8-0.5,2.1-2.2,2.1c-60.6,0-121.1,0-181.7,0c-1.7,0-2.1-0.5-2.1-2.2c0.1-33.6,0.1-67.2,0-100.8
		c0-1.9,0.7-2.1,2.3-2.1C4173.2,65.7,4203.5,65.7,4233.7,65.7z"/>
</g>
<path fill-rule="evenodd" clip-rule="evenodd" fill="#FFFFFF" d="M4164.1,141.2c-11.2,0-21.8,0-32.4,0c-3.7,0-4.6-0.9-4.6-4.6
	c0-5.1,0-10.3,0-15.4c0-5,0.6-5.6,5.7-5.6c9.6,0,19.2,0,28.8,0c0.6,0,1.3,0,2,0c-0.2-0.9-0.8-1.2-1.2-1.7
	c-3.9-3.9-7.8-7.8-11.8-11.7c-1.1-1.1-1.7-2.3-1-3.8c0.6-1.5,1.8-2,3.3-2c5.7,0,11.3,0,17,0c3.2,0,6,1.4,8.2,3.7
	c8,7.9,15.9,15.8,23.8,23.8c2.8,2.8,2.9,6.5,0.1,9.3c-7.9,8-15.9,16-23.9,23.9c-2.4,2.4-5.5,3.4-8.9,3.4c-5.2,0-10.4,0-15.6,0
	c-1.7,0-3.3-0.2-4-1.9c-0.8-1.9,0.2-3.1,1.5-4.4C4155.3,149.9,4159.5,145.8,4164.1,141.2z"/>
<g>
	<g>
		<path fill-rule="evenodd" clip-rule="evenodd" fill="#006FA6" d="M4232.9,131.4c0.1,0.8,0.1,1.6,0.3,2.4c0.5,2.6,1.9,4.5,4.4,5.4
			c2.4,0.8,4.8,0.9,7.3,0.4c1.5-0.3,2.9-0.9,4-2.1c1.7-2,2.1-4.4,1.5-7c-0.6-2.4-2.1-4.1-4.3-5.2c-1.1-0.6-2.3-0.9-3.5-1.3
			c-1.4-0.5-2.9-1.1-4.1-2.1c-1.2-1-1.8-2.2-1.5-3.7c0.2-1.1,0.7-2.1,1.7-2.8c1.1-0.7,2.4-0.9,3.6-0.7c1.9,0.4,3,1.7,3.5,3.5
			c0.1,0.3,0.1,0.6,0.2,0.9c1.3,0,2.7,0,4,0c-0.1-0.5-0.1-1.1-0.2-1.6c-0.5-2.8-2.1-4.7-4.8-5.5c-2.3-0.6-4.5-0.6-6.8,0.2
			c-1.9,0.7-3.3,1.9-4.1,3.7c-0.6,1.3-0.8,2.6-0.7,4.1c0.1,2.2,1.1,3.9,2.9,5.1c1.3,0.8,2.7,1.2,4.2,1.6c1.8,0.4,3.5,1.1,4.8,2.3
			c1.2,1.1,1.8,2.4,1.4,4.1c-0.4,1.5-1.1,2.8-2.6,3.4c-0.9,0.4-1.8,0.5-2.8,0.4c-2.3-0.3-4-1.4-4.3-4.1c0-0.5-0.1-0.9-0.1-1.4
			C4235.7,131.4,4234.3,131.4,4232.9,131.4z"/>
		<path fill-rule="evenodd" clip-rule="evenodd" fill="#006FA6" d="M4292.6,124.7c0.2,0,0.3,0,0.4,0c0.8,0,1.6,0,2.3,0
			c0.8,0,0.8,0,0.9-0.8c0.3-1.4,1-2.5,2.4-2.9c1.5-0.4,2.8-0.2,3.9,1c0.5,0.5,0.8,1.2,0.9,2c0.1,0.9-0.3,1.6-1.1,2
			c-0.9,0.5-1.8,0.9-2.8,1.3c-1.4,0.6-2.9,1-4.3,1.7c-1.2,0.7-2.2,1.6-2.7,2.9c-0.4,1-0.3,2.1-0.2,3.2c0.5,3.3,3.3,5.2,6.5,4.5
			c1.6-0.3,2.7-1.3,3.8-2.4c0.1-0.2,0.3-0.3,0.5-0.5c0.2,0.6,0.4,1.1,0.6,1.6c0.2,0.6,0.6,1,1.3,1.2c1,0.2,2,0.2,2.9,0.1
			c0-0.9,0-1.8,0-2.7c-0.2,0-0.4,0-0.6,0c-0.9-0.1-1.3-0.5-1.3-1.3c0-0.1,0-0.3,0-0.4c0-3.4,0-6.8,0-10.3c0-0.5,0-1-0.1-1.4
			c-0.2-2.2-1.5-3.9-3.7-4.5c-2-0.6-4-0.6-5.9,0c-1.7,0.5-2.9,1.6-3.5,3.3C4292.8,123,4292.7,123.8,4292.6,124.7z"/>
		<path fill-rule="evenodd" clip-rule="evenodd" fill="#006FA6" d="M4280.2,132.2c0,0.2-0.1,0.3-0.1,0.5c-0.2,1-0.4,1.9-0.9,2.7
			c-0.4,0.7-0.9,1.2-1.7,1.3c-1.2,0.3-2.3,0-3.2-0.9c-1.2-1.2-1.6-2.7-1.7-4.3c-0.1-1.3-0.1-2.6,0-3.8c0-0.8,0.1-1.6,0.2-2.4
			c0.2-1.2,0.7-2.3,1.6-3.1c1.7-1.5,4.2-1,5.1,1.1c0.1,0.3,0.2,0.6,0.3,0.9c0.1,0.5,0.3,1,0.4,1.5c1.1,0,2.3,0,3.4,0
			c0-0.2,0-0.3,0-0.4c-0.3-1-0.4-2-0.8-2.9c-0.7-1.9-2.1-3.2-4.2-3.7c-1.6-0.4-3.2-0.3-4.8,0.3c-0.9,0.3-1.7,0.8-2.4,1.6
			c-1.5,1.6-2.1,3.5-2.2,5.6c-0.1,1.7-0.1,3.5-0.1,5.2c0,0.9,0.1,1.8,0.3,2.6c0.5,2.2,1.6,4,3.7,5.1c1.5,0.8,3.2,0.9,4.9,0.7
			c1.9-0.3,3.3-1.2,4.2-2.8c0.5-0.8,0.8-1.7,1-2.6c0.1-0.7,0.2-1.3,0.3-2C4282.4,132.2,4281.3,132.2,4280.2,132.2z"/>
		<path fill-rule="evenodd" clip-rule="evenodd" fill="#006FA6" d="M4219,132c0.1,0,0.2,0,0.3,0c1.5-0.2,2.9-0.3,4.4-0.5
			c1.4-0.2,2.8-0.7,4-1.5c1.8-1.2,2.6-3.2,2.1-5.3c-0.6-2.5-3.2-4.3-5.9-4.3c-2.4,0-4.3,1-5.8,2.8c-2.8,3.5-3.4,7.4-1.9,11.7
			c0.8,2.4,2.6,3.9,5.1,4.5c1.6,0.4,3.1,0.3,4.7,0.1c1.4-0.2,2.7-0.7,3.9-1.5c0.1-0.1,0.2-0.2,0.3-0.3c-0.6-0.6-1.1-1.3-1.7-1.9
			c-0.4,0.2-0.8,0.4-1.1,0.6c-1.6,0.7-3.3,1.1-5.1,0.7C4219.9,136.4,4218.8,134,4219,132z"/>
		<path fill-rule="evenodd" clip-rule="evenodd" fill="#006FA6" d="M4286.2,119.1c0,0.1,0,0.2,0,0.3c0,6.4,0,12.7,0,19.1
			c0,0.3,0.1,0.4,0.4,0.4c0.9,0,1.7,0,2.6,0c0.3,0,0.4-0.1,0.4-0.4c0-6.3,0-12.6,0-19c0-0.1,0-0.2,0-0.4
			C4288.4,119.1,4287.3,119.1,4286.2,119.1z"/>
		<path fill-rule="evenodd" clip-rule="evenodd" fill="#006FA6" d="M4286.2,115.8c1.1,0,2.2,0,3.3,0c0-1.2,0-2.3,0-3.4
			c-1.1,0-2.2,0-3.3,0C4286.2,113.5,4286.2,114.6,4286.2,115.8z"/>
		<path fill-rule="evenodd" clip-rule="evenodd" fill="#006FA6" d="M4313.9,138.8c-1.1,0-2.1,0-3.2,0c-0.2,0-0.3-0.1-0.2-0.3
			c0-0.1,0-0.1,0-0.2c0-8.5,0-17.1,0-25.6c0-0.1,0-0.3,0-0.5c1.2,0,2.3,0,3.4,0C4313.9,121.2,4313.9,130,4313.9,138.8z"/>
		<path fill-rule="evenodd" clip-rule="evenodd" fill="#006FA6" d="M4232.9,131.4c1.4,0,2.8,0,4.2,0c0,0.5,0,1,0.1,1.4
			c0.3,2.7,2,3.9,4.3,4.1c1,0.1,1.9,0,2.8-0.4c1.5-0.7,2.2-1.9,2.6-3.4c0.4-1.7-0.2-3-1.4-4.1c-1.4-1.2-3.1-1.9-4.8-2.3
			c-1.5-0.3-2.9-0.8-4.2-1.6c-1.9-1.2-2.8-2.9-2.9-5.1c-0.1-1.4,0.1-2.8,0.7-4.1c0.8-1.8,2.2-3.1,4.1-3.7c2.2-0.8,4.5-0.9,6.8-0.2
			c2.7,0.8,4.3,2.7,4.8,5.5c0.1,0.5,0.1,1,0.2,1.6c-1.4,0-2.7,0-4,0c-0.1-0.3-0.1-0.6-0.2-0.9c-0.5-1.8-1.6-3.1-3.5-3.5
			c-1.3-0.3-2.5,0-3.6,0.7c-1,0.6-1.5,1.6-1.7,2.8c-0.3,1.6,0.3,2.8,1.5,3.7c1.2,1,2.6,1.6,4.1,2.1c1.2,0.4,2.4,0.8,3.5,1.3
			c2.2,1.1,3.7,2.7,4.3,5.2c0.6,2.5,0.2,4.9-1.5,7c-1,1.2-2.4,1.8-4,2.1c-2.5,0.5-4.9,0.4-7.3-0.4c-2.5-0.9-4-2.8-4.4-5.4
			C4233,133,4233,132.2,4232.9,131.4z"/>
		<path fill-rule="evenodd" clip-rule="evenodd" fill="#006FA6" d="M4267.3,129.3c0,1.2,0,2.3-0.1,3.4c-0.3,2.3-1.1,4.3-3,5.8
			c-1.3,1-2.9,1.3-4.5,1.3c-1.9,0-3.6-0.6-5-1.9c-1.2-1.2-1.9-2.7-2.2-4.4c-0.1-0.8-0.2-1.6-0.2-2.4c0-1.6,0-3.3,0.1-4.9
			c0.1-1.7,0.6-3.3,1.5-4.8c1.2-1.8,2.9-2.7,5-2.8c1.4-0.1,2.8,0,4.2,0.6c2,0.9,3.1,2.5,3.7,4.5c0.4,1.1,0.5,2.3,0.5,3.5
			C4267.3,127.9,4267.3,128.6,4267.3,129.3C4267.3,129.3,4267.3,129.3,4267.3,129.3z M4255.6,129.3c0,1,0.1,2,0.2,3
			c0.1,1.2,0.5,2.3,1.3,3.3c1.4,1.8,4,1.9,5.5,0.1c0.8-0.9,1.2-2,1.3-3.2c0.3-2.2,0.3-4.3,0-6.5c-0.1-1.2-0.5-2.3-1.3-3.2
			c-1.3-1.6-3.8-1.7-5.2-0.3c-0.7,0.7-1.1,1.7-1.3,2.6C4255.6,126.5,4255.6,127.9,4255.6,129.3z"/>
		<path fill-rule="evenodd" clip-rule="evenodd" fill="#006FA6" d="M4292.6,124.7c0-0.9,0.2-1.7,0.5-2.5c0.6-1.7,1.7-2.8,3.5-3.3
			c2-0.6,4-0.6,5.9,0c2.1,0.6,3.5,2.3,3.7,4.5c0,0.5,0.1,1,0.1,1.4c0,3.4,0,6.8,0,10.3c0,0.1,0,0.3,0,0.4c0,0.9,0.4,1.3,1.3,1.3
			c0.2,0,0.4,0,0.6,0c0,0.9,0,1.8,0,2.7c-1,0-2,0.1-2.9-0.1c-0.6-0.2-1-0.6-1.3-1.2c-0.2-0.5-0.4-1-0.6-1.6
			c-0.2,0.2-0.3,0.3-0.5,0.5c-1.1,1.1-2.2,2.1-3.8,2.4c-3.2,0.7-6-1.2-6.5-4.5c-0.2-1.1-0.2-2.1,0.2-3.2c0.5-1.4,1.5-2.3,2.7-2.9
			c1.4-0.8,2.8-1.2,4.3-1.7c0.9-0.4,1.9-0.8,2.8-1.3c0.8-0.4,1.2-1.1,1.1-2c-0.1-0.7-0.4-1.4-0.9-2c-1.1-1.1-2.4-1.4-3.9-1
			c-1.5,0.4-2.2,1.5-2.4,2.9c-0.1,0.8-0.1,0.8-0.9,0.8c-0.8,0-1.5,0-2.3,0C4292.9,124.7,4292.8,124.7,4292.6,124.7z"/>
		<path fill-rule="evenodd" clip-rule="evenodd" fill="#006FA6" d="M4280.2,132.2c1.2,0,2.3,0,3.5,0c-0.1,0.7-0.2,1.4-0.3,2
			c-0.2,0.9-0.5,1.8-1,2.6c-1,1.6-2.4,2.5-4.2,2.8c-1.7,0.2-3.3,0.1-4.9-0.7c-2.1-1.1-3.2-2.9-3.7-5.1c-0.2-0.9-0.3-1.7-0.3-2.6
			c0-1.7,0-3.5,0.1-5.2c0.1-2.1,0.8-4,2.2-5.6c0.7-0.7,1.5-1.2,2.4-1.6c1.6-0.6,3.2-0.6,4.8-0.3c2.1,0.5,3.4,1.8,4.2,3.7
			c0.4,0.9,0.5,1.9,0.8,2.9c0,0.1,0,0.3,0,0.4c-1.2,0-2.3,0-3.4,0c-0.1-0.5-0.2-1-0.4-1.5c-0.1-0.3-0.2-0.6-0.3-0.9
			c-0.9-2-3.4-2.6-5.1-1.1c-0.9,0.8-1.4,1.9-1.6,3.1c-0.1,0.8-0.2,1.6-0.2,2.4c0,1.3,0,2.6,0,3.8c0.1,1.6,0.5,3.1,1.7,4.3
			c0.9,0.9,2,1.1,3.2,0.9c0.8-0.2,1.3-0.7,1.7-1.3c0.5-0.8,0.7-1.8,0.9-2.7C4280.1,132.6,4280.1,132.4,4280.2,132.2z"/>
		<path fill-rule="evenodd" clip-rule="evenodd" fill="#FE9F53" d="M4219,129.9c0.1,0,0.1,0.1,0.1,0.1c1.9,0,3.7-0.2,5.4-1
			c1.4-0.7,2.3-1.7,2.4-3.3c0.1-1.5-0.5-2.7-2.2-2.9c-1.6-0.2-3,0.4-4.1,1.6C4219.3,126,4219.1,127.9,4219,129.9z"/>
		<path fill-rule="evenodd" clip-rule="evenodd" fill="#006FA6" d="M4286.2,119.1c1.1,0,2.2,0,3.3,0c0,0.1,0,0.2,0,0.4
			c0,6.3,0,12.6,0,19c0,0.3-0.1,0.4-0.4,0.4c-0.9,0-1.7,0-2.6,0c-0.3,0-0.4-0.1-0.4-0.4c0-6.4,0-12.7,0-19.1
			C4286.1,119.3,4286.2,119.2,4286.2,119.1z"/>
		<path fill-rule="evenodd" clip-rule="evenodd" fill="#006FA6" d="M4286.2,115.8c0-1.2,0-2.3,0-3.4c1.1,0,2.2,0,3.3,0
			c0,1.1,0,2.3,0,3.4C4288.4,115.8,4287.3,115.8,4286.2,115.8z"/>
	</g>
	<path fill-rule="evenodd" clip-rule="evenodd" fill="#FE9F53" d="M4302.9,129.6c-0.2,0-0.2,0.1-0.3,0.1c-1,0.4-1.9,0.6-3,0.8
		c-0.9,0.1-1.9,0.4-2.8,0.7c-1.4,0.5-2.1,1.5-2.2,3c0,1.3,0.4,2.4,1.6,3c1,0.5,2.1,0.4,3.1,0c1.4-0.6,2.4-1.7,3.2-2.9
		c0.2-0.3,0.3-0.6,0.3-1c0-0.6,0-1.2,0-1.8C4302.9,130.9,4302.9,130.3,4302.9,129.6z"/>
</g>
<g>
	<g id="_x36__2_">
		<g>
			<g>
				<g>
					<g>
						<line fill="#B7CEDA" x1="4709.3" y1="225.8" x2="4688.8" y2="173.9"/>
						<path fill="#FE9F53" d="M4640.1,158.3c-16.3,10.5-13.1,15.3-14.2,23c-0.2,1.4-0.3,2.8-0.3,4.2v36.8c0.9,3.9,2.2,7,3.7,8.6
							c1,1,2,2,3.2,2.9"/>
						<path fill="#E1F1FF" d="M4692.5,173.9"/>
					</g>
				</g>
				<path fill="#006FA6" d="M4669,73.2C4669,73.2,4669,73.2,4669,73.2"/>
			</g>
		</g>
		<g id="_x37__2_">
			<g>
				<g>
					<path fill="#2B2924" d="M4597.3,58.7c0.6-0.6,1.1-1.2,1.6-1.7C4598.3,57.5,4597.8,58.1,4597.3,58.7z"/>
					<path fill="#434444" d="M4665.5,91.9c-0.1-2.8-0.4-5.6-0.7-8.5c-3.1-23.7-22.3-43.8-46.5-39c-6,1.2-15.1,2.9-17.8,9.9
						c-10.8-1-15.5,15.9-16.9,24.5c-0.3,1.8-0.5,3.5-0.7,5.3c-0.9,8.3-0.5,16.6,0,24.8c0.4,7.4,1.9,15.9,5.8,22.3
						c3,5,7.5,12.1,12.6,14.9c10.4,5.9,21.7,5.3,33,3.4c5.5-0.9,11.4-1.1,16.2-4.8c6-4.5,9.1-8.8,11-16.5
						C4664.4,116.5,4666.1,104.2,4665.5,91.9z"/>
				</g>
				<g>
					<g>
						<path fill="#FFFFFF" d="M4606.3,149.7c-1.7,8.5,19.3,24.8,19.3,24.8l14-7.5l-33.3-35.6C4606.3,131.4,4608,141.2,4606.3,149.7z
							"/>
						<path fill="#FFFFFF" d="M4645.3,127.6c1.4-10.2-39,3.8-39,3.8l35.1,37.7l7-16.7C4648.4,152.5,4643.4,141,4645.3,127.6z"/>
					</g>
					<path fill="#FFFFFF" d="M4645.9,127.4c2.1-3,2.5-6.4,2.9-9.8c0.2-1.5,1.5-2,2.7-2.8c2.5-1.8,3.1-3.5,3.8-7.5
						c1.2-6.6,2.6-8.9-4-11.2c-12.2-4.1-27.2-8.9-38-16.8c-2.4-1.7-11.6-6.3-11.2-9.7c-0.7,7-4.2,11.6-7.4,17.4c0,0,0,0.1,0,0.1
						c-0.9,2.4-2.2,4.3-3.4,6.2c-0.9,1.8-1.8,3.7-2.3,5.3c-0.2,1.1-0.3,2.4-0.1,3.8c0.3,2.1,1.6,12.1,5.9,12.4
						c1,0.1,1.6,1.3,1.7,2.4c1.3,8,6.5,13.6,12.3,19.1c0.4,0.4,0.8,0.7,1.1,1.1c4.5,4.2,8.9,6.1,13.2,5.8c4.4,0.3,8.8-1.6,13.2-5.8
						c0.8-0.8,1.7-1.5,2.5-2.3C4641.5,132.8,4643.9,130.2,4645.9,127.4z"/>
				</g>
			</g>
			<g>
				<g>
					<path fill="#006FA6" d="M4627.2,233.6l0-4.9c0,0.1-0.1,0.3-0.1,0.4c-1.6-5.6-3.3-11.2-4.9-16.9c-5.6-19.1-11.2-38.2-16.7-57.2
						c0.2,0.8-10.9,8.2-12.2,8.7c-7.5,3.1-12.9,3.4-20.7,5.5c-6.5,1.8-15.6,4-19.7,9.8c-4.8,6.8-6.6,27.4-8.1,42.1
						c-0.7,6.6,4.3,12.4,10.6,12.4H4627.2z"/>
					<path fill="#006FA6" d="M4698,233.6c6.3,0,11.2-5.6,10.6-12.2c-1.3-14.8-2.6-35.5-7.4-42.4c-4.1-5.8-13.2-8.1-19.7-9.8
						c-7.8-2.1-13.2-2.4-20.7-5.5c-1.3-0.5-12.5-7.9-12.2-8.7c-5.5,19.1-11.1,38.2-16.7,57.2c-1.6,5.5-3.2,11-4.8,16.4l0,4.9H4698z"
						/>
				</g>
				<path fill="#E3E4E5" d="M4618,213l-0.7,3.5c0,0.1,0,0.3,0,0.5l6.1,16.6h7.1l6.1-16.6c0.1-0.1,0.1-0.3,0-0.5l-0.7-3.5l9.6-23.8
					c0.4-1,0.3-2.1-0.4-2.9c-4.1-5.7-10.2-11.7-17.1-14c-0.4-0.6-0.9-1.1-1.4-0.7c-0.2,0.2-0.4,0.4-0.6,0.6
					c-7,2.3-13.1,8.4-17.3,14.1c-0.6,0.9-0.8,2-0.4,2.9L4618,213z"/>
				<path fill="#FFFFFF" d="M4652.5,164.3l-4.7-14.2l-3.8,7.3c-4.3,6.4-13.7,12.8-17,12.9c-3.3-0.1-12.3-6.2-17-12.9l-3.8-7.3
					l-4.7,14.2c-0.1,0.2-0.1,0.4,0,0.6l8.6,29.4c0.2,0.8,1.3,5.2,1.8,0.3l4.8-8.8c0.6-1,1.2-2,2-2.9l8.3-10.9l8.3,10.9
					c0.7,0.9,1.4,1.9,2,2.9l4.8,8.8c0.5,4.9,1.5,0.5,1.8-0.3l8.7-29.4C4652.6,164.7,4652.6,164.5,4652.5,164.3z"/>
				<path fill="#0087BD" d="M4594.7,197.2c-0.4,0.8,12.9,20.5,22.6,36.5h19.9c9.8-16.1,22.7-35.6,22.3-36.5c0,0-8-15-8-15l10.9,1.2
					c-1.1-3.6-3.6-21.4-6.8-23.2l-6.1-5.2l-13.1,40.9L4627,228l-9.3-32.1l-13.1-40.9l-6.1,5.2c-3.2,1.8-5.7,19.6-6.8,23.2l10.9-1.2
					C4602.6,182.1,4594.7,197.1,4594.7,197.2z"/>
			</g>
			<path fill="#FE9F53" d="M4664,92.1c1-12,0-27.7-8.8-39.5c-6.4-8.6-19.8-15.5-33.3-15.5c-13.2,0-26.9,6.9-33.3,15.5
				c-8.8,11.8-9.8,27.5-8.8,39.5c-5,2.7-6.4,9.5-5.4,16.9c1.1,8.7,5,11,12.6,10.4l-4.2-28.4c0,0,0,0,0,0c-0.8-11.4,0.2-26,8.2-36.6
				c5.9-7.8,18.7-13.8,30.9-14.3c13.6,0.4,25.1,6.4,30.9,14.3c8,10.7,9,25.2,8.2,36.6c0,0,0,0,0,0l-4.3,28.4c0.1,0,0.1,0,0.2,0
				l-13.2,15.9c-0.8-0.7-2-0.7-2.7,0l-6.8,6.6c-0.8,0.8-0.8,2,0,2.8l1.4,1.4c0.8,0.8,2,0.8,2.8,0l6.8-6.6c0.5-0.5,0.7-1.3,0.5-2
				l15.1-18.3c5-0.5,7.7-3.4,8.6-10.4C4670.4,101.7,4669,94.9,4664,92.1z"/>
		</g>
	</g>
</g>
<g>
	<g>
		<g>
			<polygon fill="#02394C" points="4981.8,73.1 4981.8,225 5075.7,225 5095.7,205 5095.7,73.1 			"/>
			<polygon fill="#02394C" points="4978.4,69.7 4978.4,221.6 5072.3,221.6 5092.3,201.6 5092.3,69.7 			"/>
			<polygon fill="#02394C" points="5072.3,201.6 5072.3,221.6 5092.3,201.6 			"/>
			<path fill="#02394C" d="M5050.3,80.1h-29.9c-1.6,0-2.9-1.3-2.9-2.9v-8.7c0-1.6,1.3-2.9,2.9-2.9h29.9c1.6,0,2.9,1.3,2.9,2.9v8.7
				C5053.2,78.8,5051.9,80.1,5050.3,80.1z"/>
			<path fill="#02394C" d="M5042.6,65.7c0,4-3.2,7.2-7.2,7.2c-4,0-7.2-3.2-7.2-7.2c0-4,3.2-7.2,7.2-7.2
				C5039.3,58.4,5042.6,61.7,5042.6,65.7z"/>
			<path fill="#02394C" d="M5046.2,75.2h-21.7c-1.4,0-2.5-1.1-2.5-2.5l0,0c0-1.4,1.1-2.5,2.5-2.5h21.7c1.4,0,2.5,1.1,2.5,2.5l0,0
				C5048.7,74.1,5047.6,75.2,5046.2,75.2z"/>
			<rect x="4988.6" y="89.6" fill="#02394C" width="33.4" height="25.8"/>
			<rect x="4988.6" y="127.6" fill="#02394C" width="93.8" height="25.8"/>
			<line fill="none" stroke="#02394C" stroke-width="3" stroke-miterlimit="10" x1="5030.8" y1="93.5" x2="5082.3" y2="93.5"/>
			<line fill="none" stroke="#02394C" stroke-width="3" stroke-miterlimit="10" x1="5030.8" y1="102.5" x2="5082.3" y2="102.5"/>
			<line fill="none" stroke="#02394C" stroke-width="3" stroke-miterlimit="10" x1="5030.8" y1="111.4" x2="5082.3" y2="111.4"/>
			<line fill="none" stroke="#02394C" stroke-width="3" stroke-miterlimit="10" x1="4988.6" y1="165.9" x2="5082.3" y2="165.9"/>
			<line fill="none" stroke="#02394C" stroke-width="3" stroke-miterlimit="10" x1="4988.6" y1="174.5" x2="5082.3" y2="174.5"/>
			<line fill="none" stroke="#02394C" stroke-width="3" stroke-miterlimit="10" x1="4988.6" y1="183" x2="5082.3" y2="183"/>
			<line fill="none" stroke="#02394C" stroke-width="3" stroke-miterlimit="10" x1="4988.6" y1="191.6" x2="5082.3" y2="191.6"/>
		</g>
		<g>
			<path fill="#006FA6" d="M5089.7,227.4h-115.4c-4.3,0-7.7-3.5-7.7-7.8V66.5c0-4.3,3.5-7.7,7.7-7.7h115.4c4.3,0,7.7,3.5,7.7,7.7
				v153.2C5097.4,224,5094,227.4,5089.7,227.4z"/>
			<polygon fill="#006FA6" points="4978.4,69.7 4978.4,221.6 5072.4,221.6 5092.3,201.7 5092.3,69.7 			"/>
			<polygon fill="#FFFFFF" points="4975,66.3 4975,218.2 5069,218.2 5088.9,198.3 5088.9,66.3 			"/>
			<polygon fill="#FE9F53" points="5069,198.3 5069,218.2 5088.9,198.3 			"/>
			<path fill="#757575" d="M5047,76.8H5017c-1.6,0-2.9-1.3-2.9-2.9v-8.7c0-1.6,1.3-2.9,2.9-2.9h29.9c1.6,0,2.9,1.3,2.9,2.9v8.7
				C5049.8,75.5,5048.6,76.8,5047,76.8z"/>
			<path fill="#757575" d="M5039.2,62.3c0,4-3.2,7.2-7.2,7.2c-4,0-7.2-3.2-7.2-7.2c0-4,3.2-7.2,7.2-7.2
				C5036,55.1,5039.2,58.3,5039.2,62.3z"/>
			<path fill="#616161" d="M5042.9,71.8h-21.7c-1.4,0-2.5-1.1-2.5-2.5l0,0c0-1.4,1.1-2.5,2.5-2.5h21.7c1.4,0,2.5,1.1,2.5,2.5l0,0
				C5045.4,70.7,5044.2,71.8,5042.9,71.8z"/>
			<rect x="4985.2" y="86.2" fill="#FE9F53" width="33.4" height="25.8"/>
			<rect x="4985.2" y="124.3" fill="#FE9F53" width="93.8" height="25.8"/>
			<g>
				<line fill="none" stroke="#006FA6" stroke-width="3" stroke-miterlimit="10" x1="5027.4" y1="90.2" x2="5079" y2="90.2"/>
				<line fill="none" stroke="#006FA6" stroke-width="3" stroke-miterlimit="10" x1="5027.4" y1="99.1" x2="5079" y2="99.1"/>
				<line fill="none" stroke="#006FA6" stroke-width="3" stroke-miterlimit="10" x1="5027.4" y1="108.1" x2="5079" y2="108.1"/>
			</g>
			<line fill="none" stroke="#006FA6" stroke-width="3" stroke-miterlimit="10" x1="4985.2" y1="162.6" x2="5079" y2="162.6"/>
			<line fill="none" stroke="#006FA6" stroke-width="3" stroke-miterlimit="10" x1="4985.2" y1="171.1" x2="5079" y2="171.1"/>
			<line fill="none" stroke="#006FA6" stroke-width="3" stroke-miterlimit="10" x1="4985.2" y1="179.7" x2="5079" y2="179.7"/>
			<line fill="none" stroke="#006FA6" stroke-width="3" stroke-miterlimit="10" x1="4985.2" y1="188.2" x2="5079" y2="188.2"/>
		</g>
	</g>
	<g>
		<path fill="#FFFFFF" d="M4995.9,98.7c0,3.9-2.4,4.9-4.7,4.9h-2.6v-9.7h2.4C4993.5,93.9,4995.9,94.7,4995.9,98.7z M4990.4,95.3v6.9
			h0.9c1.4,0,2.6-0.6,2.6-3.5c0-2.9-1.3-3.4-2.7-3.4H4990.4z"/>
		<path fill="#FFFFFF" d="M4999.5,103.6h-1.8v-9.7h1.8V103.6z"/>
		<path fill="#FFFFFF" d="M5004.8,99.7h-1.2v3.9h-1.8v-9.7h2.9c2.5,0,3.8,0.9,3.8,2.8c0,1.3-0.6,2.1-2,2.6l2.5,4.2h-2.1L5004.8,99.7
			z M5003.6,98.4h1.2c1.2,0,1.8-0.5,1.8-1.6c0-1.1-0.6-1.5-1.9-1.5h-1V98.4z"/>
		<path fill="#FFFFFF" d="M5015.6,95.3h-3.4v2.9h3v1.4h-3v4h-1.9v-9.7h5.5L5015.6,95.3z"/>
	</g>
</g>
<g>
	<path fill-rule="evenodd" clip-rule="evenodd" fill="#005B81" d="M5452.2,83.9c-0.1,18.2-15.1,33-33.1,32.8
		c-18.6-0.2-33-15.1-32.8-33.8c0.2-18.1,15.2-32.6,33.5-32.4C5437.8,50.8,5452.3,65.6,5452.2,83.9z"/>
	<path fill-rule="evenodd" clip-rule="evenodd" fill="#005B81" d="M5544.2,84c-0.2,18.2-15.1,33-33.1,32.8
		c-18.6-0.2-33-15.1-32.8-33.8c0.2-18,15.2-32.6,33.5-32.4C5529.9,50.8,5544.4,65.7,5544.2,84z"/>
	<path fill-rule="evenodd" clip-rule="evenodd" fill="#005B81" d="M5482.7,143.2c-0.1,11.6-9.6,21-21.1,20.9
		c-11.8-0.1-21.1-9.6-20.9-21.5c0.1-11.5,9.7-20.8,21.4-20.7C5473.5,122.1,5482.8,131.6,5482.7,143.2z"/>
	<path fill-rule="evenodd" clip-rule="evenodd" fill="#005B81" d="M5422,119.3c-6.1,0-12.2-0.3-18.2-0.1
		c-20.9,0.9-38,16.9-39.9,37.8c-1.1,12.4-0.2,24.8-0.4,37.3c0,1.6,0.8,2.2,2.1,2.6c17.7,5.5,35.6,9,54.2,9.3c2.4,0,3-0.9,2.9-3
		c-0.1-4-0.1-8,0-11.9c0.2-12.7,7.7-23.3,19.4-28c1-0.4,2.3-0.3,2.9-1.6c-6.7-6.4-8.9-14.4-7.6-23.4c0.3-0.8,0.5-1.7,0.8-2.5
		c1.4-2.6,2.7-5.3,4.1-7.9c0.8-0.9,1.7-1.8,2.5-2.7c1.3-0.6,2.6-1.4,2.5-2.9c-0.1-1.9-2-1.5-3.2-1.9"/>
	<path fill-rule="evenodd" clip-rule="evenodd" fill="#005B81" d="M5486.2,147.9c-0.4,1.4-0.8,2.8-1.2,4.2c-0.2,0.5-0.3,1-0.5,1.4
		c-1.7,3-3.6,5.8-6.3,8.4c0.9,0.4,1.3,0.6,1.8,0.7c13.5,5,20.9,15.5,20.9,29.8c0,3.4,0.2,6.7,0,10.1c-0.2,2.7,0.6,3.7,3.5,3.6
		c18.1-0.5,35.8-3.9,53.1-9.2c2.1-0.6,2.7-1.6,2.7-3.7c-0.1-10.7,0.1-21.4-0.1-32.1c-0.4-23.9-18.8-42-42.7-42.2
		c-8.9-0.1-17.9-0.1-26.8,0c-3.3,0-6.7,0-10,1.1c-1.6,0.3-3.6,0.1-4.3,2.1c-0.7,2.1,1.8,2.3,2.6,3.5c0.4,0.6,1.1,1,1.6,1.5
		c1.5,2.3,3,4.6,4.5,7c0.8,1.6,1,2.8,1.1,3.9c0.2,2.8,0.3,5.7,0.5,8.5C5486.4,147,5486.3,147.4,5486.2,147.9z"/>
	<path fill-rule="evenodd" clip-rule="evenodd" fill="#005B81" d="M5426.7,200.5c0,4,0.1,7.4-0.1,10.7c-0.1,2.3,0.7,3.3,2.9,3.9
		c9,2.6,18.1,4.5,27.4,5.1c12.5,0.8,24.8-0.3,36.6-4.9c2.3-0.9,3.2-2.2,3.1-4.7c-0.2-6.1,0-12.2-0.1-18.3
		c-0.3-14.1-11.1-25.3-25.2-25.8c-6.7-0.3-13.4-0.3-20.1,0c-12,0.6-21.8,9.5-24.1,21.3C5426.3,192.3,5426.9,196.8,5426.7,200.5z"/>
	<g>
		<path fill-rule="evenodd" clip-rule="evenodd" fill="#FE9F53" d="M5467.2,183.6c0-2.7,2-4.8,4.7-4.8c1.5,0,2.8,0.5,4,1.3
			c0.2,0.1,0.3,0.1,0.4,0c1.3-0.9,2.6-1.3,4.2-1.3c2.4,0.1,4.3,1.9,4.5,4.3c0.1,1.4-0.3,2.8-0.9,4c-0.9,1.6-2.1,2.9-3.4,4
			c-1.4,1.1-2.8,2.1-4.4,2.9c-0.1,0-0.2,0.1-0.3,0c-2-1.1-4-2.4-5.6-4c-1.1-1.1-2.1-2.4-2.7-3.9
			C5467.4,185.3,5467.2,184.5,5467.2,183.6z"/>
	</g>
</g>
</svg>
